<?xml version="1.0" encoding="UTF-8"?>
<!DOCTYPE svg PUBLIC "-//W3C//DTD SVG 1.1//EN" "http://www.w3.org/Graphics/SVG/1.1/DTD/svg11.dtd">
<svg xmlns="http://www.w3.org/2000/svg" version="1.1" width="560px" height="442px" style="shape-rendering:geometricPrecision; text-rendering:geometricPrecision; image-rendering:optimizeQuality; fill-rule:evenodd; clip-rule:evenodd" xmlns:xlink="http://www.w3.org/1999/xlink">
<g><path style="opacity:0.978" fill="#fbfbfb" d="M 174.5,-0.5 C 239.833,-0.5 305.167,-0.5 370.5,-0.5C 378.081,8.34712 385.414,17.3471 392.5,26.5C 353.449,27.0197 313.616,27.6864 273,28.5C 232.57,27.6514 192.737,26.6514 153.5,25.5C 160.5,16.8333 167.5,8.16667 174.5,-0.5 Z"/></g>
<g><path style="opacity:0.955" fill="#f6f6f6" d="M 153.5,25.5 C 192.737,26.6514 232.57,27.6514 273,28.5C 313.616,27.6864 353.449,27.0197 392.5,26.5C 396.798,30.2964 400.964,34.2964 405,38.5C 406.411,40.6504 407.245,42.9837 407.5,45.5C 338.166,45.3333 268.833,45.5 199.5,46C 195.269,50.0621 191.269,54.2288 187.5,58.5C 167.007,57.5028 146.34,57.1695 125.5,57.5C 133.744,45.9195 143.078,35.2529 153.5,25.5 Z"/></g>
<g><path style="opacity:0.966" fill="#ebebeb" d="M 125.5,57.5 C 146.34,57.1695 167.007,57.5028 187.5,58.5C 171.178,78.1535 154.511,97.4868 137.5,116.5C 119.004,115.668 100.338,115.168 81.5,115C 79.6183,114.802 77.9516,114.302 76.5,113.5C 91.3493,93.6431 107.683,74.9764 125.5,57.5 Z"/></g>
<g><path style="opacity:0.972" fill="#0285be" d="M 307.5,93.5 C 289.021,108.469 270.354,123.303 251.5,138C 269.814,139.201 288.147,139.701 306.5,139.5C 307.167,139.5 307.5,139.833 307.5,140.5C 270.097,140.795 232.764,139.962 195.5,138C 207.833,123.667 220.167,109.333 232.5,95C 257.484,93.7595 282.484,93.2595 307.5,93.5 Z"/></g>
<g><path style="opacity:0.977" fill="#0d9edd" d="M 413.5,93.5 C 429.837,93.3334 446.17,93.5001 462.5,94C 465.553,94.1786 468.553,94.6786 471.5,95.5C 471.863,96.1835 472.196,96.8501 472.5,97.5C 464.623,95.0439 456.623,94.8772 448.5,97C 431.375,111.392 413.709,125.059 395.5,138C 410.328,138.788 424.994,139.621 439.5,140.5C 418.497,140.333 397.497,140.5 376.5,141C 384.199,149.587 391.532,158.421 398.5,167.5C 396.217,167.608 394.217,168.441 392.5,170C 381.915,178.768 371.249,187.268 360.5,195.5C 348.677,184.685 338.344,172.685 329.5,159.5C 357.811,137.851 385.811,115.851 413.5,93.5 Z"/></g>
<g><path style="opacity:0.999" fill="#068dc8" d="M 307.5,93.5 C 327.5,93.5 347.5,93.5 367.5,93.5C 364.825,94.3554 362.158,95.522 359.5,97C 343.453,110.049 327.119,122.716 310.5,135C 308.959,136.371 307.625,137.871 306.5,139.5C 288.147,139.701 269.814,139.201 251.5,138C 270.354,123.303 289.021,108.469 307.5,93.5 Z"/></g>
<g><path style="opacity:0.997" fill="#0a97d4" d="M 367.5,93.5 C 382.833,93.5 398.167,93.5 413.5,93.5C 385.811,115.851 357.811,137.851 329.5,159.5C 323.73,153.229 317.73,147.062 311.5,141C 310.207,140.51 308.873,140.343 307.5,140.5C 307.5,139.833 307.167,139.5 306.5,139.5C 307.625,137.871 308.959,136.371 310.5,135C 327.119,122.716 343.453,110.049 359.5,97C 362.158,95.522 364.825,94.3554 367.5,93.5 Z"/></g>
<g><path style="opacity:0.992" fill="#10a7e8" d="M 472.5,97.5 C 481.61,106.935 489.943,116.935 497.5,127.5C 495.456,126.222 493.456,126.388 491.5,128C 481.333,136.167 471.167,144.333 461,152.5C 460.51,153.793 460.343,155.127 460.5,156.5C 455.149,152.149 450.483,147.149 446.5,141.5C 444.257,140.526 441.924,140.192 439.5,140.5C 424.994,139.621 410.328,138.788 395.5,138C 413.709,125.059 431.375,111.392 448.5,97C 456.623,94.8772 464.623,95.0439 472.5,97.5 Z"/></g>
<g><path style="opacity:0.959" fill="#e3e3e3" d="M 76.5,113.5 C 77.9516,114.302 79.6183,114.802 81.5,115C 100.338,115.168 119.004,115.668 137.5,116.5C 131.531,124.247 125.198,131.747 118.5,139C 121.216,142.271 123.549,145.771 125.5,149.5C 105.091,149.179 84.7576,149.512 64.5,150.5C 59.8547,147.855 56.188,144.188 53.5,139.5C 60.4745,130.194 68.1412,121.527 76.5,113.5 Z"/></g>
<g><path style="opacity:0.988" fill="#17b5f8" d="M 497.5,127.5 C 516.227,146.226 533.894,165.893 550.5,186.5C 539.95,198.428 529.284,210.261 518.5,222C 517.004,222.507 515.837,222.007 515,220.5C 496.58,199.29 478.414,177.957 460.5,156.5C 460.343,155.127 460.51,153.793 461,152.5C 471.167,144.333 481.333,136.167 491.5,128C 493.456,126.388 495.456,126.222 497.5,127.5 Z"/></g>
<g><path style="opacity:0.96" fill="#d8d8d8" d="M 125.5,149.5 C 143.903,167.667 160.903,187.001 176.5,207.5C 156.012,208.095 135.679,208.761 115.5,209.5C 97.3855,190.724 80.3855,171.058 64.5,150.5C 84.7576,149.512 105.091,149.179 125.5,149.5 Z"/></g>
<g><path style="opacity:0.993" fill="#14b0f3" d="M 398.5,167.5 C 412.946,181.941 426.28,197.274 438.5,213.5C 437.448,213.351 436.448,213.517 435.5,214C 426.117,221.717 416.451,229.051 406.5,236C 404.174,237.805 402.508,239.972 401.5,242.5C 390.233,230.063 378.733,217.729 367,205.5C 365.004,202.014 362.837,198.681 360.5,195.5C 371.249,187.268 381.915,178.768 392.5,170C 394.217,168.441 396.217,167.608 398.5,167.5 Z"/></g>
<g><path style="opacity:0.953" fill="#cbcbcb" d="M 96.5,269.5 C 85.1135,270.714 73.6135,271.714 62,272.5C 53.0491,271.85 44.2158,271.85 35.5,272.5C 25.6576,262.154 16.3243,251.32 7.5,240C 17.3571,227.465 28.0238,215.631 39.5,204.5C 59.6108,225.272 78.6108,246.939 96.5,269.5 Z"/></g>
<g><path style="opacity:0.955" fill="#cccccc" d="M 176.5,207.5 C 195.945,227.606 214.279,248.606 231.5,270.5C 211.137,271.155 190.803,271.822 170.5,272.5C 151.077,252.413 132.744,231.413 115.5,209.5C 135.679,208.761 156.012,208.095 176.5,207.5 Z"/></g>
<g><path style="opacity:0.988" fill="#18b7fb" d="M 438.5,213.5 C 449.433,225.604 460.6,237.604 472,249.5C 482.031,261.691 492.198,273.691 502.5,285.5C 501.185,288.006 499.185,289.839 496.5,291C 466.264,307.91 434.597,321.41 401.5,331.5C 413.81,316.853 426.144,302.186 438.5,287.5C 426.498,272.171 414.165,257.171 401.5,242.5C 402.508,239.972 404.174,237.805 406.5,236C 416.451,229.051 426.117,221.717 435.5,214C 436.448,213.517 437.448,213.351 438.5,213.5 Z"/></g>
<g><path style="opacity:0.959" fill="#c3c3c3" d="M 96.5,269.5 C 101.603,275.105 106.936,280.605 112.5,286C 135.167,286.667 157.833,286.667 180.5,286C 176.539,281.886 173.206,277.386 170.5,272.5C 190.803,271.822 211.137,271.155 231.5,270.5C 236.369,275.688 241.369,280.854 246.5,286C 283.839,286.356 321.172,287.023 358.5,288C 359.5,288.333 360.5,288.667 361.5,289C 357.602,292.729 353.935,296.562 350.5,300.5C 253.833,300.5 157.167,300.5 60.5,300.5C 51.4313,291.768 43.098,282.435 35.5,272.5C 44.2158,271.85 53.0491,271.85 62,272.5C 73.6135,271.714 85.1135,270.714 96.5,269.5 Z"/></g>
<g><path style="opacity:0.981" fill="#007db3" d="M 502.5,285.5 C 504.085,286.002 504.585,287.002 504,288.5C 478.619,317.949 452.786,346.949 426.5,375.5C 414.846,368.327 403.846,360.16 393.5,351C 391.783,349.441 389.783,348.608 387.5,348.5C 391.441,342.226 396.108,336.56 401.5,331.5C 434.597,321.41 466.264,307.91 496.5,291C 499.185,289.839 501.185,288.006 502.5,285.5 Z"/></g>
<g><path style="opacity:0.969" fill="#bebebe" d="M 60.5,300.5 C 157.167,300.5 253.833,300.5 350.5,300.5C 342.423,311.418 333.756,321.918 324.5,332C 246.173,333.53 167.84,333.863 89.5,333C 78.6063,323.272 68.9397,312.439 60.5,300.5 Z"/></g>
<g><path style="opacity:0.986" fill="#048ac3" d="M 387.5,348.5 C 389.783,348.608 391.783,349.441 393.5,351C 403.846,360.16 414.846,368.327 426.5,375.5C 420.059,383.394 413.393,391.061 406.5,398.5C 405.404,396.897 404.07,395.397 402.5,394C 391.286,385.946 379.953,378.113 368.5,370.5C 373.417,362.038 379.75,354.705 387.5,348.5 Z"/></g>
<g><path style="opacity:0.972" fill="#0a96d3" d="M 368.5,370.5 C 379.953,378.113 391.286,385.946 402.5,394C 404.07,395.397 405.404,396.897 406.5,398.5C 399.392,407.062 392.059,415.395 384.5,423.5C 384.141,421.629 383.141,420.129 381.5,419C 364.265,406.249 346.931,393.749 329.5,381.5C 338.839,381.666 348.173,381.5 357.5,381C 360.377,376.622 364.044,373.122 368.5,370.5 Z"/></g>
<g><path style="opacity:0.966" fill="#17b7fd" d="M 230.5,381.5 C 250.766,396.312 271.099,411.145 291.5,426C 290.619,426.708 289.953,427.542 289.5,428.5C 255.469,428.951 221.469,428.451 187.5,427C 174.086,412.924 161.419,398.257 149.5,383C 157.096,381.545 164.763,380.712 172.5,380.5C 191.823,381.377 211.156,381.711 230.5,381.5 Z"/></g>
<g><path style="opacity:0.956" fill="#14adf1" d="M 230.5,381.5 C 243.833,381.5 257.167,381.5 270.5,381.5C 290.986,396.47 311.652,411.304 332.5,426C 331.058,426.377 330.058,427.21 329.5,428.5C 316.167,428.5 302.833,428.5 289.5,428.5C 289.953,427.542 290.619,426.708 291.5,426C 271.099,411.145 250.766,396.312 230.5,381.5 Z"/></g>
<g><path style="opacity:0.964" fill="#0e9fde" d="M 308.5,381.5 C 315.5,381.5 322.5,381.5 329.5,381.5C 346.931,393.749 364.265,406.249 381.5,419C 383.141,420.129 384.141,421.629 384.5,423.5C 383.229,425.934 381.229,427.434 378.5,428C 374.848,428.499 371.182,428.665 367.5,428.5C 367.67,427.178 367.337,426.011 366.5,425C 346.7,411.021 327.367,396.521 308.5,381.5 Z"/></g>
<g><path style="opacity:0.982" fill="#10a6e8" d="M 270.5,381.5 C 283.167,381.5 295.833,381.5 308.5,381.5C 327.367,396.521 346.7,411.021 366.5,425C 367.337,426.011 367.67,427.178 367.5,428.5C 354.833,428.5 342.167,428.5 329.5,428.5C 330.058,427.21 331.058,426.377 332.5,426C 311.652,411.304 290.986,396.47 270.5,381.5 Z"/></g>
</svg>
