<svg xmlns="http://www.w3.org/2000/svg" version="1.1" xmlns:xlink="http://www.w3.org/1999/xlink" xmlns:svgjs="http://svgjs.dev/svgjs" width="1920" height="1080" preserveAspectRatio="none" viewBox="0 0 1920 1080"><g mask="url(&quot;#SvgjsMask1002&quot;)" fill="none"><rect width="1920" height="1080" x="0" y="0" fill="url(&quot;#SvgjsLinearGradient1003&quot;)"></rect><path d="M1387.784,371.645C1432.754,373.772,1480.054,357.986,1502.169,318.772C1523.994,280.074,1509.391,233.823,1487.227,195.318C1464.999,156.701,1432.34,119.711,1387.784,120.05C1343.632,120.386,1311.124,157.549,1290.93,196.813C1272.636,232.383,1271.338,273.782,1290.721,308.771C1310.743,344.913,1346.513,369.693,1387.784,371.645" fill="rgba(249, 252, 255, 0.43)" class="triangle-float3"></path><path d="M1522.8640514399553 853.7346017045809L1561.0331476119968 1125.3218329378956 1794.4512826732698 815.5655055325393z" fill="rgba(249, 252, 255, 0.43)" class="triangle-float3"></path><path d="M372.0256180054749 893.0175630554052L417.86856033721375 1064.1057530059047 588.9567502877132 1018.2628106741658 543.1138079559744 847.1746207236663z" fill="rgba(249, 252, 255, 0.43)" class="triangle-float3"></path><path d="M-11.76 185.56 a291.98 291.98 0 1 0 583.96 0 a291.98 291.98 0 1 0 -583.96 0z" fill="rgba(249, 252, 255, 0.43)" class="triangle-float1"></path><path d="M432.0014358175362 146.79842067638901L334.1080714701758-137.50455291349738 49.805097880289395-39.611188566136946 147.69846222764983 244.69178502374945z" fill="rgba(249, 252, 255, 0.43)" class="triangle-float1"></path><path d="M736.5062289613725 304.21659624994635L757.5250666761675 3.6332129866708556 456.941683412892-17.385624728124185 435.922845698097 283.1977585351513z" fill="rgba(249, 252, 255, 0.43)" class="triangle-float2"></path><path d="M896.068,1089.544C981.155,1092.978,1064.337,1055.211,1109.199,982.831C1156.486,906.538,1162.122,809.815,1117.84,731.74C1072.997,652.676,986.881,603.164,896.068,607.053C810.996,610.696,743.917,673.726,704.925,749.424C669.357,818.474,672.734,899.04,710.787,966.752C749.693,1035.981,816.721,1086.342,896.068,1089.544" fill="rgba(249, 252, 255, 0.43)" class="triangle-float3"></path><path d="M844.9142892383416 740.2492875977753L793.5471736572631 1031.566676318947 1136.2316779595133 791.6164031788537z" fill="rgba(249, 252, 255, 0.43)" class="triangle-float3"></path><path d="M1078.37 1019.91 a281.57 281.57 0 1 0 563.14 0 a281.57 281.57 0 1 0 -563.14 0z" fill="rgba(249, 252, 255, 0.43)" class="triangle-float2"></path><path d="M1104.195,1431.19C1192.375,1428.867,1270.646,1379.803,1315.852,1304.056C1362.309,1226.212,1377.418,1128.781,1331.223,1050.781C1285.753,974.004,1193.351,943.007,1104.195,946.67C1021.611,950.063,951.308,998.212,907.334,1068.198C859.813,1143.829,829.713,1237.225,872.295,1315.743C916.416,1397.098,1011.678,1433.628,1104.195,1431.19" fill="rgba(249, 252, 255, 0.43)" class="triangle-float1"></path><path d="M1406.263,1095.442C1480.612,1094.102,1562.489,1082.545,1599.473,1018.033C1636.327,953.748,1606.774,876.256,1568.185,812.997C1531.587,753.003,1476.488,703.977,1406.263,701.308C1331.517,698.467,1261.613,736.674,1221.519,799.821C1178.17,868.095,1157.745,956.638,1200.604,1025.22C1241.75,1091.061,1328.636,1096.841,1406.263,1095.442" fill="rgba(249, 252, 255, 0.43)" class="triangle-float3"></path><path d="M763.045,711.995C854.8,710.697,958.554,716.62,1009.731,640.452C1065.177,557.929,1051.203,446.358,997.919,362.423C948.213,284.124,855.789,251.725,763.045,251.865C670.589,252.005,580.041,285.779,529.4,363.133C473.51,448.504,447.182,562.828,503.963,647.609C557.036,726.854,667.679,713.344,763.045,711.995" fill="rgba(249, 252, 255, 0.43)" class="triangle-float1"></path></g><defs><mask id="SvgjsMask1002"><rect width="1920" height="1080" fill="#ffffff"></rect></mask><linearGradient x1="10.94%" y1="-19.44%" x2="89.06%" y2="119.44%" gradientUnits="userSpaceOnUse" id="SvgjsLinearGradient1003"><stop stop-color="#0e2a47" offset="0"></stop><stop stop-color="rgba(25, 188, 252, 1)" offset="1"></stop></linearGradient><style>
                @keyframes float1 {
                    0%{transform: translate(0, 0)}
                    50%{transform: translate(-10px, 0)}
                    100%{transform: translate(0, 0)}
                }

                .triangle-float1 {
                    animation: float1 5s infinite;
                }

                @keyframes float2 {
                    0%{transform: translate(0, 0)}
                    50%{transform: translate(-5px, -5px)}
                    100%{transform: translate(0, 0)}
                }

                .triangle-float2 {
                    animation: float2 4s infinite;
                }

                @keyframes float3 {
                    0%{transform: translate(0, 0)}
                    50%{transform: translate(0, -10px)}
                    100%{transform: translate(0, 0)}
                }

                .triangle-float3 {
                    animation: float3 6s infinite;
                }
            </style></defs></svg>