<?xml version="1.0" encoding="utf-8" ?>
<svg xmlns="http://www.w3.org/2000/svg" xmlns:xlink="http://www.w3.org/1999/xlink" width="2100" height="2100">
	<path fill="#04A9E3" transform="matrix(4.2 0 0 4.2 0 6.10352e-05)" d="M365.104 255.77C366.181 255.724 367.426 255.572 368.47 255.877L368.75 255.968L369.776 256.343C371.117 256.985 372.261 258.251 372.76 259.648C373.304 261.171 373.2 263.014 372.436 264.443C371.377 266.421 369.803 267.515 367.682 268.092C366.682 268.185 365.404 268.159 364.449 267.816C362.781 267.217 360.841 265.472 360.124 263.838C359.545 262.518 359.508 261.05 360.078 259.721C360.958 257.672 363.119 256.494 365.104 255.77Z"/>
	<path fill="#04A9E3" transform="matrix(4.2 0 0 4.2 0 6.10352e-05)" d="M449.242 256.044C450.834 255.975 452.432 255.831 453.946 256.444C455.239 256.969 456.619 258.386 457.065 259.716C457.58 261.255 457.558 263.013 456.844 264.483C455.843 266.546 454.278 267.606 452.207 268.384C450.931 268.477 449.784 268.38 448.578 267.913C446.943 267.28 444.951 265.375 444.302 263.748C443.797 262.483 443.901 261.149 444.487 259.936C445.482 257.874 447.151 256.751 449.242 256.044Z"/>
	<path fill="#04A9E3" transform="matrix(4.2 0 0 4.2 0 6.10352e-05)" d="M279.23 255.807C280.585 255.665 282.507 255.526 283.804 255.935C285.271 256.397 286.116 257.395 286.719 258.761C287.522 260.579 287.587 263.314 286.773 265.137C285.947 266.989 284.491 267.797 282.681 268.441C281.071 268.63 279.272 268.673 277.799 267.894C276.648 267.284 275.624 265.974 275.178 264.769C274.51 262.962 274.561 260.729 275.396 258.981C276.244 257.207 277.463 256.484 279.23 255.807Z"/>
	<path fill="#04A9E3" transform="matrix(4.2 0 0 4.2 0 6.10352e-05)" d="M424.545 154.034C425.838 153.933 427.556 153.823 428.789 154.227C430.287 154.719 431.683 156.044 432.327 157.47C433.03 159.025 433.011 160.761 432.43 162.345C431.651 164.468 430.057 165.668 428.083 166.564C427.059 166.688 426.091 166.825 425.065 166.618L424.75 166.548L423.5 166.21C422 165.646 420.866 164.494 420.28 163C419.554 161.148 419.582 158.845 420.499 157.059C421.381 155.342 422.808 154.646 424.545 154.034Z"/>
	<path fill="#04A9E3" transform="matrix(4.2 0 0 4.2 0 6.10352e-05)" d="M429.053 255.775C430.148 255.729 431.412 255.576 432.479 255.86C434.235 256.328 435.632 257.363 436.477 258.997C437.298 260.584 437.51 262.309 436.868 263.988C435.97 266.335 434.399 267.557 432.175 268.482C430.82 268.604 429.397 268.645 428.106 268.164C426.454 267.548 425.164 266.244 424.474 264.625C423.78 263 423.84 261.01 424.588 259.416C425.523 257.427 427.037 256.451 429.053 255.775Z"/>
	<path fill="#04A9E3" transform="matrix(4.2 0 0 4.2 0 6.10352e-05)" d="M279.597 403.755C280.687 403.726 281.919 403.602 282.978 403.895C284.695 404.37 286.123 405.336 286.963 406.953C287.792 408.548 287.862 410.635 287.315 412.328C286.586 414.585 284.939 415.615 282.956 416.597C281.348 416.842 279.796 416.85 278.277 416.207C276.817 415.588 275.703 414.6 275.112 413.113C274.477 411.519 274.443 409.272 275.132 407.689C276.017 405.655 277.584 404.513 279.597 403.755Z"/>
	<path fill="#04A9E3" transform="matrix(4.2 0 0 4.2 0 6.10352e-05)" d="M281.528 206.088C284.19 205.919 287.957 206.026 290.203 207.604C291.615 208.596 292.252 209.769 292.537 211.436C292.854 213.297 292.726 215.241 291.531 216.789C290.094 218.651 288.517 218.751 286.351 218.978C283.693 219.005 279.386 219.478 277.119 218.051C275.618 217.106 274.869 215.582 274.568 213.873C274.236 211.992 274.754 210.18 275.875 208.663C277.369 206.641 279.235 206.396 281.528 206.088Z"/>
	<path fill="#04A9E3" transform="matrix(4.2 0 0 4.2 0 6.10352e-05)" d="M342.699 251.553C344.343 251.449 345.993 251.351 347.597 251.8C348.904 252.166 350.043 252.896 350.682 254.125C351.455 255.613 351.307 257.456 351.313 259.077C351.325 262.088 351.848 266.342 350.782 269.125C350.123 270.846 349.123 271.765 347.46 272.488C346.006 272.928 344.329 272.946 342.875 272.47C341.535 272.031 340.277 271.267 339.649 269.967C338.362 267.303 338.893 262.514 338.957 259.557C338.996 257.764 338.929 255.803 339.596 254.113C340.16 252.686 341.403 252.151 342.699 251.553Z"/>
	<path fill="#04A9E3" transform="matrix(4.2 0 0 4.2 0 6.10352e-05)" d="M281.765 107.601C285.021 107.282 291.541 106.939 294.169 108.935C295.326 109.813 295.847 110.85 295.999 112.279C296.221 114.359 296.123 116.464 294.674 118.125C293.185 119.832 291.347 119.85 289.259 119.99C285.854 120.006 279.298 120.829 276.665 118.651C275.23 117.464 274.399 115.462 274.292 113.625C274.216 112.32 274.771 110.966 275.632 110.001C277.319 108.11 279.376 107.791 281.765 107.601Z"/>
	<path fill="#04A9E3" transform="matrix(4.2 0 0 4.2 0 6.10352e-05)" d="M406.694 251.562C408.112 251.433 409.774 251.314 411.182 251.576C412.415 251.806 413.614 252.671 414.275 253.731C415.791 256.163 415.39 260.356 415.398 263.161C415.402 264.803 415.504 266.622 415.084 268.219C414.517 270.373 413.26 271.626 411.378 272.677C410.075 273.02 408.442 273.153 407.125 272.785C405.693 272.385 404.47 271.533 403.785 270.178C402.462 267.559 402.302 257.807 403.24 254.924C403.855 253.033 405.001 252.366 406.694 251.562Z"/>
	<path fill="#04A9E3" transform="matrix(4.2 0 0 4.2 0 6.10352e-05)" d="M402.979 149.555C404.769 149.436 406.571 149.337 408.182 150.273C409.218 150.875 410.23 151.901 410.552 153.082L410.625 153.373C411.285 155.899 411.026 158.93 411.021 161.539C411.017 163.074 411.191 164.983 410.684 166.438L410.565 166.75L410.153 167.798C409.348 169.439 407.908 170.424 406.215 170.972C405.187 171.064 403.017 171.288 402.137 170.811L401.75 170.521C400.562 169.67 399.602 168.949 399.041 167.548L398.928 167.25L398.809 166.955C397.959 164.645 398.014 154.606 399.052 152.5C399.834 150.911 401.413 150.142 402.979 149.555Z"/>
	<path fill="#04A9E3" transform="matrix(4.2 0 0 4.2 0 6.10352e-05)" d="M499.779 268.09C499.084 269.889 497.979 271.662 496.185 272.544C494.708 273.271 492.225 273.317 490.718 272.665C489.195 272.007 488.065 270.725 487.554 269.166C486.801 266.866 486.624 256.68 487.75 254.611C488.442 253.341 489.917 252.117 491.309 251.747C492.979 251.303 495.359 251.367 496.875 252.277C498.242 253.098 499.282 254.451 499.723 255.974L500 256.081L500 268.04L499.779 268.09Z"/>
	<path fill="#04A9E3" transform="matrix(4.2 0 0 4.2 0 6.10352e-05)" d="M499.723 255.974L500 256.081L500 268.04L499.779 268.09L499.723 255.974Z"/>
	<path fill="#04A9E3" transform="matrix(4.2 0 0 4.2 0 6.10352e-05)" d="M300.411 249.782C301.411 249.724 302.468 249.625 303.459 249.802C305.24 250.12 307.171 251.264 308.093 252.854C309.506 255.293 309.325 267.232 308.502 269.977C307.899 271.988 306.172 273.382 304.359 274.267C303.187 274.619 302.333 274.81 301.125 274.523C299.499 274.137 297.603 273.225 296.763 271.696C295.706 269.772 295.587 255.003 296.375 252.747L296.47 252.5L296.706 251.926C297.384 250.613 299.093 250.165 300.411 249.782Z"/>
	<path fill="#04A9E3" transform="matrix(4.2 0 0 4.2 0 6.10352e-05)" d="M385.423 306.113C388.495 305.998 400.218 305.333 402.316 306.953C403.747 308.057 404.578 309.654 404.76 311.432C404.944 313.227 404.559 314.946 403.33 316.32C401.225 318.675 398.481 318.472 395.586 318.668C391.496 318.76 380.442 319.484 377.457 317.078C376.141 316.019 375.667 314.371 375.541 312.749C375.403 310.972 375.763 309.326 376.96 307.981C378.936 305.761 382.721 306.178 385.423 306.113Z"/>
	<path fill="#04A9E3" transform="matrix(4.2 0 0 4.2 0 6.10352e-05)" d="M341.49 306.105L353.362 306.007C355.735 306.016 360.562 305.613 362.506 307.126C363.918 308.225 364.406 309.197 364.597 310.961C364.805 312.881 364.773 315.219 363.504 316.785C362.24 318.346 360.979 318.297 359.12 318.492C355.171 318.528 340.364 319.417 337.685 317.757C336.665 317.125 336.099 315.744 335.837 314.625C335.373 312.643 335.535 310.309 336.755 308.625C337.969 306.95 339.551 306.403 341.49 306.105Z"/>
	<path fill="#04A9E3" transform="matrix(4.2 0 0 4.2 0 6.10352e-05)" d="M312.214 107.827C318.161 107.483 324.223 107.723 330.182 107.763L335.909 107.829C337.044 107.852 338.434 107.78 339.518 108.156C340.623 108.539 341.168 109.507 341.619 110.516C342.47 112.421 342.739 114.833 341.891 116.775C341.206 118.342 339.977 119.193 338.427 119.782C333.551 120.445 328.261 120.024 323.341 120.006L316.147 120.011C314.344 120.007 312.162 120.087 310.537 119.194C309.307 118.518 308.628 117.487 308.252 116.163C307.722 114.298 307.944 111.834 308.928 110.16C309.738 108.783 310.721 108.24 312.214 107.827Z"/>
	<path fill="#04A9E3" transform="matrix(4.2 0 0 4.2 0 6.10352e-05)" d="M328.067 149.035C329.659 148.926 331.443 149.055 332.832 149.918C334.159 150.743 335.258 152.272 335.581 153.802C336.052 156.038 335.29 157.926 334.142 159.797C332.375 162.677 330.249 165.286 328.262 168.008C325.844 171.321 323.285 175.583 320.035 178.11C319.363 178.632 318.577 178.831 317.764 179.022C316.488 179.054 315.156 179.027 313.983 178.465C312.28 177.651 310.823 176.193 310.23 174.375C309.627 172.525 310.451 170.446 311.347 168.828C313.25 165.39 315.916 162.269 318.245 159.111C320.323 156.294 322.396 152.819 325.016 150.526C325.972 149.689 326.873 149.379 328.067 149.035Z"/>
	<path fill="#04A9E3" transform="matrix(4.2 0 0 4.2 0 6.10352e-05)" d="M328.083 342.269C329.332 342.172 330.542 342.106 331.75 342.523C333.214 343.027 334.924 344.312 335.526 345.788C335.792 346.441 335.945 347.181 335.986 347.884C336.308 353.413 336.032 359.123 336.029 364.668L336.03 370.767C336.03 371.885 336.137 373.272 335.653 374.306C334.762 376.213 333.414 377.219 331.488 377.929C329.937 378.057 328.492 378.015 327.026 377.428C325.747 376.917 324.46 375.955 323.958 374.623C323.294 372.859 323.457 370.698 323.447 368.835L323.439 359.239C323.437 355.614 323.113 351.634 323.514 348.045C323.611 347.178 323.784 346.161 324.173 345.375C325.023 343.659 326.334 342.865 328.083 342.269Z"/>
	<path fill="#04A9E3" transform="matrix(4.2 0 0 4.2 0 6.10352e-05)" d="M354.754 342.359C356.064 342.423 357.297 342.457 358.436 343.202C359.758 344.067 360.576 345.265 360.832 346.821C361.465 350.668 361.009 355.298 361.011 359.225C361.014 363.651 361.457 368.657 360.87 373.017C360.739 373.986 360.404 374.942 359.784 375.71C358.466 377.343 356.308 377.86 354.339 378.107C352.685 377.892 351.509 377.506 350.165 376.482C349.026 375.616 348.4 374.478 348.232 373.068C347.63 368.025 348.028 362.564 348.035 357.48C348.04 354.053 347.597 349.951 348.307 346.625C348.481 345.808 348.837 345.218 349.373 344.583C350.894 342.78 352.561 342.557 354.754 342.359Z"/>
	<path fill="#04A9E3" transform="matrix(4.2 0 0 4.2 0 6.10352e-05)" d="M386.588 243.033C387.887 243.004 389.006 243.018 390.25 243.483C391.629 243.999 393.013 245.299 393.574 246.661C394.469 248.836 394.575 275.472 393.721 277.409C392.927 279.212 391.24 280.203 389.467 280.86C387.95 281.073 386.579 281.107 385.169 280.408C383.66 279.66 382.603 278.411 382.118 276.804C381.536 274.881 381.714 272.811 381.71 270.821L381.703 262.312C381.706 257.893 381.359 253.134 381.809 248.75C381.916 247.704 382.117 246.731 382.632 245.804C383.552 244.149 384.884 243.566 386.588 243.033Z"/>
	<path fill="#04A9E3" transform="matrix(4.2 0 0 4.2 0 6.10352e-05)" d="M470.212 243.305C471.614 243.17 473.013 243.091 474.375 243.532C475.94 244.039 477.185 245.355 477.906 246.792C478.261 247.499 478.376 248.289 478.449 249.068C478.85 253.33 478.507 257.951 478.506 262.246C478.505 266.564 478.792 271.048 478.576 275.344C478.538 276.095 478.427 276.814 478.144 277.516C477.467 279.196 475.87 280.176 474.276 280.841C472.969 281.018 471.402 281.162 470.125 280.795C468.781 280.408 467.544 279.44 466.876 278.216C466.441 277.418 466.277 276.731 466.198 275.828C465.699 270.139 466.04 264.214 466.043 258.5L466.065 251.46C466.079 250.082 465.968 248.474 466.414 247.155C467.068 245.219 468.408 244.09 470.212 243.305Z"/>
	<path fill="#04A9E3" transform="matrix(4.2 0 0 4.2 0 6.10352e-05)" d="M382.863 141.072C384.262 141.168 385.788 141.348 386.963 142.174C388.246 143.076 389.271 144.328 389.544 145.897L389.598 146.24C389.921 148.207 389.815 150.243 389.82 152.233L389.832 161.014C389.835 165.062 390.124 169.279 389.918 173.304C389.874 174.161 389.701 175.026 389.264 175.774C388.131 177.709 386.543 178.502 384.466 179.024C383.304 179.049 381.829 179.127 380.771 178.595C379.156 177.784 377.938 176.409 377.477 174.647C376.598 171.291 377.077 166.683 377.072 163.194L377.175 151.989C377.215 150.143 377.141 148.205 377.37 146.375C377.484 145.464 377.709 144.651 378.209 143.874C379.425 141.984 380.789 141.507 382.863 141.072Z"/>
	<path fill="#04A9E3" transform="matrix(4.2 0 0 4.2 0 6.10352e-05)" d="M322.838 243.058C324.425 242.946 326.073 243.124 327.459 243.962C328.743 244.739 329.592 245.763 329.906 247.248C330.201 248.641 330.031 250.36 330.043 251.803L330.054 262.193L330.038 271.678C330.033 273.234 330.143 274.903 329.967 276.446C329.86 277.382 329.519 278.129 328.958 278.88C327.762 280.481 326.36 280.861 324.465 281.081C323.655 281.02 322.786 280.986 322.012 280.73C320.325 280.172 318.49 278.717 317.792 277.061L317.67 276.752L317.454 276.165C316.568 273.108 317.183 268.38 317.21 265.159C317.256 259.556 316.951 253.712 317.522 248.15C317.588 247.51 317.722 246.843 318.053 246.282C319.156 244.407 320.864 243.645 322.838 243.058Z"/>
	<path fill="#04A9E3" transform="matrix(4.2 0 0 4.2 0 6.10352e-05)" d="M289.24 145.551L290.101 145.455C292.453 145.277 294.428 145.588 296.211 147.225C297.564 148.468 298.078 150.265 298.086 152.06C298.103 155.983 293.447 158.94 291.013 161.507C290.725 161.811 289.761 162.81 289.66 163.194C289.586 163.476 290.554 164.36 290.78 164.589C293.472 167.313 297.9 170.533 298.062 174.586C298.134 176.37 297.853 177.562 296.561 178.887C295.021 180.465 293.063 180.981 290.937 181.039C289.093 180.413 287.5 179.203 285.981 178.008C281.696 174.637 277.242 169.967 274.328 165.375C273.709 164.399 273.507 163.124 273.819 162C274.38 159.977 277.085 157.592 278.489 156.048C281.615 152.612 285.187 147.877 289.24 145.551Z"/>
	<path fill="#04A9E3" transform="matrix(4.2 0 0 4.2 0 6.10352e-05)" d="M351.927 145.537C352.897 145.425 353.822 145.405 354.794 145.527C355.811 145.656 356.616 146.039 357.464 146.607C359.704 148.107 361.743 150.4 363.681 152.287C365.91 154.457 368.431 156.63 370.342 159.079L370.625 159.446C371.674 160.789 372.262 162.457 372.049 164.174C371.754 166.55 368.589 169.145 366.998 170.762C364.133 173.673 361.258 176.693 358.112 179.303C357.007 180.142 356.051 180.818 354.625 181.004C352.603 181.269 350.784 180.628 349.214 179.346C348.223 178.537 347.346 177.031 347.235 175.743C346.829 171.045 352.923 166.514 355.579 163.113C353.213 160.048 349.473 157.702 347.839 154.154C347.181 152.724 347.123 151.28 347.716 149.812C348.553 147.741 349.939 146.449 351.927 145.537Z"/>
	<path fill="#04A9E3" transform="matrix(4.2 0 0 4.2 0 6.10352e-05)" d="M439.634 206.112L454.871 206.005C457.678 206.008 460.815 205.738 463.57 206.322C464.503 206.519 465.15 206.904 465.858 207.535C467.167 208.701 468.013 210.52 468.041 212.283C468.07 214.094 466.975 215.734 465.722 216.959C464.967 217.698 464.213 218.243 463.18 218.534C461.705 218.949 459.807 218.748 458.271 218.743L448.625 218.701L433.19 218.74C430.313 218.743 427.071 219.039 424.266 218.434C423.458 218.26 422.627 217.845 421.984 217.327C420.651 216.254 419.846 214.58 419.741 212.885C419.64 211.266 420.076 209.55 421.205 208.347C421.848 207.662 422.71 207.026 423.612 206.742C425.648 206.1 427.967 206.245 430.078 206.234L439.634 206.112Z"/>
	<path fill="#04A9E3" transform="matrix(4.2 0 0 4.2 0 6.10352e-05)" d="M404.668 206.114L404.867 206.102C407.221 205.981 410.476 205.949 412.288 207.642C413.52 208.793 414.203 210.584 414.209 212.258C414.216 214.226 413.375 215.85 411.962 217.193C411.149 217.965 410.11 218.554 409 218.745C405.427 219.357 401.195 218.959 397.565 218.948L375.85 218.936C374.003 218.929 371.748 218.931 369.984 218.359C368.512 217.882 367.234 216.77 366.554 215.375C365.776 213.776 365.818 211.634 366.517 210.016C367.079 208.717 368.283 207.538 369.59 207.013L369.904 206.894C371.698 206.183 374.192 206.483 376.125 206.404L404.668 206.114Z"/>
	<path fill="#04A9E3" transform="matrix(4.2 0 0 4.2 0 6.10352e-05)" d="M385.797 342.025L387.375 341.988C388.176 342.03 388.899 342.333 389.576 342.745C392.409 344.471 395.065 346.961 397.644 349.058C400.534 351.406 404.151 353.898 406.534 356.75C407.419 357.809 407.724 358.732 407.57 360.108C407.437 361.29 406.898 362.44 406.176 363.375C404.506 365.535 401.865 367.318 399.763 369.06L391.126 376.17C390.459 376.708 389.477 377.398 388.658 377.653C386.917 378.196 385.097 377.558 383.594 376.673C381.543 375.464 380.725 373.661 380.117 371.486C381.896 366.238 385.956 363.628 390.066 360.259C387.687 357.317 384.281 355.381 382.048 352.39C381.133 351.165 380.403 349.349 380.659 347.803L380.716 347.5C380.798 347.036 380.865 346.561 381.055 346.125C381.93 344.104 383.866 342.862 385.797 342.025Z"/>
	<path fill="#04A9E3" transform="matrix(4.2 0 0 4.2 0 6.10352e-05)" d="M330.207 206.114L340.207 206.009C343.009 206.009 345.851 205.928 348.618 206.451C350.107 206.733 351.357 207.703 352.168 208.975C353.005 210.288 353.529 212.653 353.134 214.199L353.047 214.5C352.79 215.42 352.351 216.242 351.702 216.953C350.971 217.753 349.78 218.236 348.746 218.473C346.647 218.955 344.15 218.838 342.002 218.883L327.937 218.937L318.158 218.96C315.054 218.959 309.844 219.534 307.334 217.408C305.865 216.164 305.067 214.419 305.005 212.509C304.951 210.862 305.604 209.333 306.745 208.153C307.346 207.532 308.079 207.059 308.912 206.818C311.549 206.057 315.011 206.252 317.767 206.239L330.207 206.114Z"/>
	<path fill="#04A9E3" transform="matrix(4.2 0 0 4.2 0 6.10352e-05)" d="M308.879 404.105L329.762 404.007C334.688 404.007 339.965 403.626 344.853 404.125C345.943 404.236 346.924 404.443 347.846 405.064C348.985 405.831 349.713 407.081 349.949 408.419C350.289 410.34 350.15 412.32 348.927 413.9C347.325 415.971 345.395 416.227 342.97 416.503L319.513 416.523C315.344 416.528 310.872 416.877 306.746 416.379C305.518 416.231 304.447 415.966 303.441 415.215C302.047 414.173 301.284 412.844 301.101 411.116C300.915 409.366 301.38 407.459 302.539 406.111C304.168 404.215 306.575 404.287 308.879 404.105Z"/>
	<path fill="#04A9E3" transform="matrix(4.2 0 0 4.2 0 6.10352e-05)" d="M297.508 342.324C299.02 342.341 300.196 342.586 301.462 343.467C302.813 344.406 303.768 345.716 303.996 347.36C304.747 352.792 297.879 356.479 294.903 360.28C297.571 363.387 302.85 366.125 303.892 370.164C304.313 371.798 303.991 373.302 303.149 374.732C302.176 376.384 300.321 377.501 298.478 377.904C296.807 378.269 295.782 378.061 294.375 377.13C290.567 374.316 286.953 371.094 283.381 367.982C281.64 366.465 279.365 364.785 278.048 362.902C277.676 362.37 277.466 361.637 277.371 361.002C277.106 359.244 277.724 357.632 278.765 356.25C280.717 353.66 283.755 351.543 286.249 349.46C288.755 347.367 291.389 344.779 294.264 343.225C295.318 342.656 296.331 342.494 297.508 342.324Z"/>
	<path fill="#04A9E3" transform="matrix(4.2 0 0 4.2 0 6.10352e-05)" d="M433.605 306.111C438.028 305.979 442.382 306.436 446.79 306.434C452.467 306.432 458.482 305.744 464.127 306.553C465.077 306.689 465.893 307.015 466.611 307.663C468.138 309.044 468.558 310.983 468.576 312.957C468.589 314.519 468.375 315.932 467.209 317.054C464.403 319.754 457.964 319.051 454.384 319.075L435.546 319.049C431.52 319.05 427.131 319.412 423.185 318.658C422.256 318.48 421.466 318.099 420.763 317.464C419.574 316.39 419.08 314.566 419.036 313C418.987 311.251 419.47 309.759 420.66 308.466C423.514 305.364 429.698 306.181 433.605 306.111Z"/>
	<path fill="#04A9E3" transform="matrix(4.2 0 0 4.2 0 6.10352e-05)" d="M282.58 305.102L301.778 305.227C307.461 305.255 313.327 304.898 318.983 305.31C319.88 305.375 320.745 305.49 321.5 306.009C322.958 307.011 323.697 308.269 323.996 310.002C324.313 311.831 324.479 313.741 323.271 315.31C321.69 317.363 318.705 317.67 316.313 317.894C310.474 318.334 304.343 317.97 298.469 317.976C292.955 317.982 287.106 318.395 281.645 317.876C279.964 317.716 278.316 317.559 276.876 316.587C275.754 315.83 274.954 314.394 274.77 313.067C274.483 310.99 274.855 308.862 276.208 307.21C277.888 305.16 280.165 305.267 282.58 305.102Z"/>
	<path fill="#04A9E3" transform="matrix(4.2 0 0 4.2 0 6.10352e-05)" d="M261.975 195.375L265.439 195.144L265.313 314.356C262.133 314.311 258.919 314.288 255.767 313.811C246.906 312.471 237.97 308.752 230.703 303.547C219.523 295.538 211.478 283.865 207.797 270.627C207.089 268.08 206.723 265.413 206.29 262.806C204.819 249.931 207.056 236.186 213.698 224.913C215.361 225.376 216.941 226.36 218.498 227.099L230.152 232.853L259.564 247.502C258.408 245.477 256.799 243.89 255.218 242.201L248.882 235.474L225.671 210.623C235.341 200.957 248.697 196.749 261.975 195.375Z"/>
	<path fill="#04A9E3" transform="matrix(4.2 0 0 4.2 0 6.10352e-05)" d="M260.518 148.86L265.487 148.758L265.472 168.332C265.459 168.59 265.413 169.904 265.322 170.014C265.231 170.123 264.002 170.008 263.585 170.011C258.349 170.051 253.022 170.841 247.905 171.899C233.452 174.888 219.474 181.821 208.528 191.766C191.59 207.156 181.487 228.839 180.516 251.695C179.549 274.441 187.848 296.215 203.235 312.916C214.103 324.712 228.64 333.345 244.172 337.312C251.126 339.088 258.334 339.911 265.493 340.212L265.262 361.352L250.691 360.211C229.921 357.307 210.118 348.172 194.486 334.186C173.61 315.509 160.868 288.933 159.259 260.958C157.646 232.897 167.478 204.952 186.244 184.046C205.355 162.756 232.038 150.415 260.518 148.86Z"/>
	<path fill="#04A9E3" transform="matrix(4.2 0 0 4.2 0 6.10352e-05)" d="M254.494 111.141L265.47 111.031L265.487 137.358L242.906 138.249C216.825 140.278 190.374 145.956 165.947 155.33C123.385 171.665 84.8177 198.179 57.3297 234.871L48.9557 246.761C47.1124 249.54 45.2355 252.224 43.871 255.284C50.8484 267.486 59.8354 278.928 69.0524 289.503C74.7218 296.008 80.9988 301.971 87.4455 307.693C118.607 335.353 157.112 354.775 197.576 364.517C215.912 368.932 234.538 371.227 253.336 372.498L253.332 364.772L271.13 364.693L271.025 411.653L259.625 411.474L253.452 411.492L253.419 398.635C192.218 396.546 132.207 376.017 83.5289 338.722C57.9574 319.131 36.0896 294.479 19.9563 266.579L15.6009 258.881C15.0747 257.89 14.1562 256.502 14.0662 255.375C13.8562 252.744 17.1158 248.282 18.4572 246C26.8075 231.798 35.837 218.007 46.895 205.728C53.4266 198.476 60.1516 191.401 67.3919 184.848C105.466 150.385 153.534 127.033 203.848 117.049C220.577 113.729 237.479 112.04 254.494 111.141Z"/>
</svg>
