<svg xmlns="http://www.w3.org/2000/svg" version="1.1" xmlns:xlink="http://www.w3.org/1999/xlink" xmlns:svgjs="http://svgjs.dev/svgjs" width="1440" height="560" preserveAspectRatio="none" viewBox="0 0 1440 560"><g mask="url(&quot;#SvgjsMask1002&quot;)" fill="none"><rect width="1440" height="560" x="0" y="0" fill="rgba(147, 180, 214, 1)"></rect><path d="M-61.28 539.85L-61.28 539.85" stroke="#132e65" stroke-width="1.5"></path><path d="M-61.28 539.85L-45.51 700.74" stroke="#132e65" stroke-width="1.5"></path><path d="M-61.28 539.85L48.07 708.94" stroke="#132e65" stroke-width="1.5"></path><path d="M-61.28 539.85L193.75 562.04" stroke="#132e65" stroke-width="1.5"></path><path d="M-61.28 539.85L206 668.1" stroke="#132e65" stroke-width="1.5"></path><path d="M-61.28 539.85L201.93 402.62" stroke="#132e65" stroke-width="1.5"></path><path d="M-45.51 700.74L-45.51 700.74" stroke="#132e65" stroke-width="1.5"></path><path d="M-45.51 700.74L48.07 708.94" stroke="#132e65" stroke-width="1.5"></path><path d="M-45.51 700.74L206 668.1" stroke="#132e65" stroke-width="1.5"></path><path d="M-45.51 700.74L193.75 562.04" stroke="#132e65" stroke-width="1.5"></path><path d="M-45.51 700.74L201.93 402.62" stroke="#132e65" stroke-width="1.5"></path><path d="M48.07 708.94L48.07 708.94" stroke="#132e65" stroke-width="1.5"></path><path d="M48.07 708.94L206 668.1" stroke="#132e65" stroke-width="1.5"></path><path d="M201.93 402.62L201.93 402.62" stroke="#132e65" stroke-width="1.5"></path><path d="M201.93 402.62L193.75 562.04" stroke="#132e65" stroke-width="1.5"></path><path d="M201.93 402.62L373.74 403.45" stroke="#132e65" stroke-width="1.5"></path><path d="M193.75 562.04L193.75 562.04" stroke="#132e65" stroke-width="1.5"></path><path d="M193.75 562.04L206 668.1" stroke="#132e65" stroke-width="1.5"></path><path d="M193.75 562.04L355.51 536.57" stroke="#132e65" stroke-width="1.5"></path><path d="M206 668.1L206 668.1" stroke="#132e65" stroke-width="1.5"></path><path d="M373.74 403.45L373.74 403.45" stroke="#132e65" stroke-width="1.5"></path><path d="M373.74 403.45L491.35 355.84" stroke="#132e65" stroke-width="1.5"></path><path d="M355.51 536.57L355.51 536.57" stroke="#132e65" stroke-width="1.5"></path><path d="M355.51 536.57L373.74 403.45" stroke="#132e65" stroke-width="1.5"></path><path d="M355.51 536.57L393.71 691.11" stroke="#132e65" stroke-width="1.5"></path><path d="M355.51 536.57L206 668.1" stroke="#132e65" stroke-width="1.5"></path><path d="M355.51 536.57L201.93 402.62" stroke="#132e65" stroke-width="1.5"></path><path d="M355.51 536.57L495.39 693.98" stroke="#132e65" stroke-width="1.5"></path><path d="M393.71 691.11L393.71 691.11" stroke="#132e65" stroke-width="1.5"></path><path d="M393.71 691.11L495.39 693.98" stroke="#132e65" stroke-width="1.5"></path><path d="M491.35 355.84L491.35 355.84" stroke="#132e65" stroke-width="1.5"></path><path d="M491.35 355.84L644.5 492.74" stroke="#132e65" stroke-width="1.5"></path><path d="M495.39 693.98L495.39 693.98" stroke="#132e65" stroke-width="1.5"></path><path d="M495.39 693.98L661.09 687.31" stroke="#132e65" stroke-width="1.5"></path><path d="M495.39 693.98L644.5 492.74" stroke="#132e65" stroke-width="1.5"></path><path d="M495.39 693.98L206 668.1" stroke="#132e65" stroke-width="1.5"></path><path d="M495.39 693.98L802.91 679.14" stroke="#132e65" stroke-width="1.5"></path><path d="M688.45 205.12L688.45 205.12" stroke="#132e65" stroke-width="1.5"></path><path d="M688.45 205.12L828.21 248.87" stroke="#132e65" stroke-width="1.5"></path><path d="M688.45 205.12L705.69 372.2" stroke="#132e65" stroke-width="1.5"></path><path d="M688.45 205.12L854.91 385.92" stroke="#132e65" stroke-width="1.5"></path><path d="M688.45 205.12L491.35 355.84" stroke="#132e65" stroke-width="1.5"></path><path d="M705.69 372.2L705.69 372.2" stroke="#132e65" stroke-width="1.5"></path><path d="M705.69 372.2L644.5 492.74" stroke="#132e65" stroke-width="1.5"></path><path d="M705.69 372.2L854.91 385.92" stroke="#132e65" stroke-width="1.5"></path><path d="M644.5 492.74L644.5 492.74" stroke="#132e65" stroke-width="1.5"></path><path d="M644.5 492.74L803.64 490.82" stroke="#132e65" stroke-width="1.5"></path><path d="M644.5 492.74L661.09 687.31" stroke="#132e65" stroke-width="1.5"></path><path d="M661.09 687.31L661.09 687.31" stroke="#132e65" stroke-width="1.5"></path><path d="M661.09 687.31L802.91 679.14" stroke="#132e65" stroke-width="1.5"></path><path d="M661.09 687.31L803.64 490.82" stroke="#132e65" stroke-width="1.5"></path><path d="M661.09 687.31L393.71 691.11" stroke="#132e65" stroke-width="1.5"></path><path d="M661.09 687.31L947.39 712.15" stroke="#132e65" stroke-width="1.5"></path><path d="M828.21 248.87L828.21 248.87" stroke="#132e65" stroke-width="1.5"></path><path d="M828.21 248.87L854.91 385.92" stroke="#132e65" stroke-width="1.5"></path><path d="M828.21 248.87L970.68 190.58" stroke="#132e65" stroke-width="1.5"></path><path d="M828.21 248.87L705.69 372.2" stroke="#132e65" stroke-width="1.5"></path><path d="M828.21 248.87L944.38 387.6" stroke="#132e65" stroke-width="1.5"></path><path d="M854.91 385.92L854.91 385.92" stroke="#132e65" stroke-width="1.5"></path><path d="M854.91 385.92L944.38 387.6" stroke="#132e65" stroke-width="1.5"></path><path d="M854.91 385.92L803.64 490.82" stroke="#132e65" stroke-width="1.5"></path><path d="M803.64 490.82L803.64 490.82" stroke="#132e65" stroke-width="1.5"></path><path d="M803.64 490.82L705.69 372.2" stroke="#132e65" stroke-width="1.5"></path><path d="M803.64 490.82L964.21 498.82" stroke="#132e65" stroke-width="1.5"></path><path d="M802.91 679.14L802.91 679.14" stroke="#132e65" stroke-width="1.5"></path><path d="M802.91 679.14L947.39 712.15" stroke="#132e65" stroke-width="1.5"></path><path d="M802.91 679.14L803.64 490.82" stroke="#132e65" stroke-width="1.5"></path><path d="M802.91 679.14L964.21 498.82" stroke="#132e65" stroke-width="1.5"></path><path d="M1000.66 -101.21L1000.66 -101.21" stroke="#132e65" stroke-width="1.5"></path><path d="M1000.66 -101.21L1094.55 -94.94" stroke="#132e65" stroke-width="1.5"></path><path d="M1000.66 -101.21L947.32 88.24" stroke="#132e65" stroke-width="1.5"></path><path d="M1000.66 -101.21L1100.66 100.49" stroke="#132e65" stroke-width="1.5"></path><path d="M1000.66 -101.21L1247.84 -83.2" stroke="#132e65" stroke-width="1.5"></path><path d="M1000.66 -101.21L970.68 190.58" stroke="#132e65" stroke-width="1.5"></path><path d="M1000.66 -101.21L1282.66 48.8" stroke="#132e65" stroke-width="1.5"></path><path d="M947.32 88.24L947.32 88.24" stroke="#132e65" stroke-width="1.5"></path><path d="M947.32 88.24L970.68 190.58" stroke="#132e65" stroke-width="1.5"></path><path d="M947.32 88.24L1100.66 100.49" stroke="#132e65" stroke-width="1.5"></path><path d="M947.32 88.24L828.21 248.87" stroke="#132e65" stroke-width="1.5"></path><path d="M947.32 88.24L1139.07 219.72" stroke="#132e65" stroke-width="1.5"></path><path d="M970.68 190.58L970.68 190.58" stroke="#132e65" stroke-width="1.5"></path><path d="M970.68 190.58L1100.66 100.49" stroke="#132e65" stroke-width="1.5"></path><path d="M970.68 190.58L1139.07 219.72" stroke="#132e65" stroke-width="1.5"></path><path d="M970.68 190.58L944.38 387.6" stroke="#132e65" stroke-width="1.5"></path><path d="M944.38 387.6L944.38 387.6" stroke="#132e65" stroke-width="1.5"></path><path d="M944.38 387.6L964.21 498.82" stroke="#132e65" stroke-width="1.5"></path><path d="M944.38 387.6L1091.7 371.56" stroke="#132e65" stroke-width="1.5"></path><path d="M944.38 387.6L803.64 490.82" stroke="#132e65" stroke-width="1.5"></path><path d="M964.21 498.82L964.21 498.82" stroke="#132e65" stroke-width="1.5"></path><path d="M964.21 498.82L1116.94 518.01" stroke="#132e65" stroke-width="1.5"></path><path d="M964.21 498.82L854.91 385.92" stroke="#132e65" stroke-width="1.5"></path><path d="M947.39 712.15L947.39 712.15" stroke="#132e65" stroke-width="1.5"></path><path d="M1094.55 -94.94L1094.55 -94.94" stroke="#132e65" stroke-width="1.5"></path><path d="M1094.55 -94.94L1247.84 -83.2" stroke="#132e65" stroke-width="1.5"></path><path d="M1094.55 -94.94L1100.66 100.49" stroke="#132e65" stroke-width="1.5"></path><path d="M1094.55 -94.94L947.32 88.24" stroke="#132e65" stroke-width="1.5"></path><path d="M1094.55 -94.94L1282.66 48.8" stroke="#132e65" stroke-width="1.5"></path><path d="M1094.55 -94.94L970.68 190.58" stroke="#132e65" stroke-width="1.5"></path><path d="M1100.66 100.49L1100.66 100.49" stroke="#132e65" stroke-width="1.5"></path><path d="M1100.66 100.49L1139.07 219.72" stroke="#132e65" stroke-width="1.5"></path><path d="M1100.66 100.49L1282.66 48.8" stroke="#132e65" stroke-width="1.5"></path><path d="M1100.66 100.49L1261.83 200.79" stroke="#132e65" stroke-width="1.5"></path><path d="M1139.07 219.72L1139.07 219.72" stroke="#132e65" stroke-width="1.5"></path><path d="M1139.07 219.72L1261.83 200.79" stroke="#132e65" stroke-width="1.5"></path><path d="M1091.7 371.56L1091.7 371.56" stroke="#132e65" stroke-width="1.5"></path><path d="M1091.7 371.56L1116.94 518.01" stroke="#132e65" stroke-width="1.5"></path><path d="M1091.7 371.56L1139.07 219.72" stroke="#132e65" stroke-width="1.5"></path><path d="M1091.7 371.56L964.21 498.82" stroke="#132e65" stroke-width="1.5"></path><path d="M1091.7 371.56L1303.43 361.78" stroke="#132e65" stroke-width="1.5"></path><path d="M1116.94 518.01L1116.94 518.01" stroke="#132e65" stroke-width="1.5"></path><path d="M1116.94 518.01L1147.83 649.54" stroke="#132e65" stroke-width="1.5"></path><path d="M1147.83 649.54L1147.83 649.54" stroke="#132e65" stroke-width="1.5"></path><path d="M1147.83 649.54L1265.42 694.58" stroke="#132e65" stroke-width="1.5"></path><path d="M1147.83 649.54L1311.97 521.52" stroke="#132e65" stroke-width="1.5"></path><path d="M1147.83 649.54L947.39 712.15" stroke="#132e65" stroke-width="1.5"></path><path d="M1247.84 -83.2L1247.84 -83.2" stroke="#132e65" stroke-width="1.5"></path><path d="M1247.84 -83.2L1282.66 48.8" stroke="#132e65" stroke-width="1.5"></path><path d="M1247.84 -83.2L1389.18 46.36" stroke="#132e65" stroke-width="1.5"></path><path d="M1282.66 48.8L1282.66 48.8" stroke="#132e65" stroke-width="1.5"></path><path d="M1282.66 48.8L1389.18 46.36" stroke="#132e65" stroke-width="1.5"></path><path d="M1282.66 48.8L1261.83 200.79" stroke="#132e65" stroke-width="1.5"></path><path d="M1261.83 200.79L1261.83 200.79" stroke="#132e65" stroke-width="1.5"></path><path d="M1261.83 200.79L1303.43 361.78" stroke="#132e65" stroke-width="1.5"></path><path d="M1303.43 361.78L1303.43 361.78" stroke="#132e65" stroke-width="1.5"></path><path d="M1303.43 361.78L1393.09 488.91" stroke="#132e65" stroke-width="1.5"></path><path d="M1303.43 361.78L1311.97 521.52" stroke="#132e65" stroke-width="1.5"></path><path d="M1303.43 361.78L1458.95 400.21" stroke="#132e65" stroke-width="1.5"></path><path d="M1311.97 521.52L1311.97 521.52" stroke="#132e65" stroke-width="1.5"></path><path d="M1311.97 521.52L1393.09 488.91" stroke="#132e65" stroke-width="1.5"></path><path d="M1265.42 694.58L1265.42 694.58" stroke="#132e65" stroke-width="1.5"></path><path d="M1265.42 694.58L1428.23 684.18" stroke="#132e65" stroke-width="1.5"></path><path d="M1265.42 694.58L1311.97 521.52" stroke="#132e65" stroke-width="1.5"></path><path d="M1460.7 -50.91L1460.7 -50.91" stroke="#132e65" stroke-width="1.5"></path><path d="M1460.7 -50.91L1389.18 46.36" stroke="#132e65" stroke-width="1.5"></path><path d="M1460.7 -50.91L1591.94 -98.75" stroke="#132e65" stroke-width="1.5"></path><path d="M1460.7 -50.91L1588.18 87.56" stroke="#132e65" stroke-width="1.5"></path><path d="M1460.7 -50.91L1282.66 48.8" stroke="#132e65" stroke-width="1.5"></path><path d="M1389.18 46.36L1389.18 46.36" stroke="#132e65" stroke-width="1.5"></path><path d="M1389.18 46.36L1436.37 188.05" stroke="#132e65" stroke-width="1.5"></path><path d="M1436.37 188.05L1436.37 188.05" stroke="#132e65" stroke-width="1.5"></path><path d="M1436.37 188.05L1607.76 202.89" stroke="#132e65" stroke-width="1.5"></path><path d="M1436.37 188.05L1261.83 200.79" stroke="#132e65" stroke-width="1.5"></path><path d="M1436.37 188.05L1588.18 87.56" stroke="#132e65" stroke-width="1.5"></path><path d="M1436.37 188.05L1565.3 340.68" stroke="#132e65" stroke-width="1.5"></path><path d="M1436.37 188.05L1282.66 48.8" stroke="#132e65" stroke-width="1.5"></path><path d="M1458.95 400.21L1458.95 400.21" stroke="#132e65" stroke-width="1.5"></path><path d="M1458.95 400.21L1393.09 488.91" stroke="#132e65" stroke-width="1.5"></path><path d="M1458.95 400.21L1565.3 340.68" stroke="#132e65" stroke-width="1.5"></path><path d="M1458.95 400.21L1537.62 531.52" stroke="#132e65" stroke-width="1.5"></path><path d="M1458.95 400.21L1311.97 521.52" stroke="#132e65" stroke-width="1.5"></path><path d="M1458.95 400.21L1436.37 188.05" stroke="#132e65" stroke-width="1.5"></path><path d="M1393.09 488.91L1393.09 488.91" stroke="#132e65" stroke-width="1.5"></path><path d="M1393.09 488.91L1537.62 531.52" stroke="#132e65" stroke-width="1.5"></path><path d="M1428.23 684.18L1428.23 684.18" stroke="#132e65" stroke-width="1.5"></path><path d="M1428.23 684.18L1541.49 677.21" stroke="#132e65" stroke-width="1.5"></path><path d="M1428.23 684.18L1537.62 531.52" stroke="#132e65" stroke-width="1.5"></path><path d="M1591.94 -98.75L1591.94 -98.75" stroke="#132e65" stroke-width="1.5"></path><path d="M1591.94 -98.75L1588.18 87.56" stroke="#132e65" stroke-width="1.5"></path><path d="M1591.94 -98.75L1389.18 46.36" stroke="#132e65" stroke-width="1.5"></path><path d="M1588.18 87.56L1588.18 87.56" stroke="#132e65" stroke-width="1.5"></path><path d="M1588.18 87.56L1607.76 202.89" stroke="#132e65" stroke-width="1.5"></path><path d="M1607.76 202.89L1607.76 202.89" stroke="#132e65" stroke-width="1.5"></path><path d="M1607.76 202.89L1565.3 340.68" stroke="#132e65" stroke-width="1.5"></path><path d="M1607.76 202.89L1458.95 400.21" stroke="#132e65" stroke-width="1.5"></path><path d="M1607.76 202.89L1389.18 46.36" stroke="#132e65" stroke-width="1.5"></path><path d="M1607.76 202.89L1460.7 -50.91" stroke="#132e65" stroke-width="1.5"></path><path d="M1565.3 340.68L1565.3 340.68" stroke="#132e65" stroke-width="1.5"></path><path d="M1565.3 340.68L1537.62 531.52" stroke="#132e65" stroke-width="1.5"></path><path d="M1537.62 531.52L1537.62 531.52" stroke="#132e65" stroke-width="1.5"></path><path d="M1537.62 531.52L1541.49 677.21" stroke="#132e65" stroke-width="1.5"></path><path d="M1541.49 677.21L1541.49 677.21" stroke="#132e65" stroke-width="1.5"></path><path d="M1541.49 677.21L1393.09 488.91" stroke="#132e65" stroke-width="1.5"></path><path d="M1541.49 677.21L1265.42 694.58" stroke="#132e65" stroke-width="1.5"></path><path d="M1541.49 677.21L1311.97 521.52" stroke="#132e65" stroke-width="1.5"></path><path d="M1541.49 677.21L1458.95 400.21" stroke="#132e65" stroke-width="1.5"></path><circle r="5" cx="-61.28" cy="539.85" fill="#132e65"></circle><circle r="5" cx="-45.51" cy="700.74" fill="#132e65"></circle><circle r="5" cx="48.07" cy="708.94" fill="#132e65"></circle><circle r="5" cx="201.93" cy="402.62" fill="#132e65"></circle><circle r="5" cx="193.75" cy="562.04" fill="#132e65"></circle><circle r="5" cx="206" cy="668.1" fill="#132e65"></circle><circle r="5" cx="373.74" cy="403.45" fill="#132e65"></circle><circle r="5" cx="355.51" cy="536.57" fill="#132e65"></circle><circle r="5" cx="393.71" cy="691.11" fill="#132e65"></circle><circle r="5" cx="491.35" cy="355.84" fill="#132e65"></circle><circle r="5" cx="495.39" cy="693.98" fill="#132e65"></circle><circle r="5" cx="688.45" cy="205.12" fill="#132e65"></circle><circle r="5" cx="705.69" cy="372.2" fill="#132e65"></circle><circle r="5" cx="644.5" cy="492.74" fill="#132e65"></circle><circle r="5" cx="661.09" cy="687.31" fill="#132e65"></circle><circle r="5" cx="828.21" cy="248.87" fill="#132e65"></circle><circle r="5" cx="854.91" cy="385.92" fill="#132e65"></circle><circle r="5" cx="803.64" cy="490.82" fill="#132e65"></circle><circle r="5" cx="802.91" cy="679.14" fill="#132e65"></circle><circle r="5" cx="1000.66" cy="-101.21" fill="#132e65"></circle><circle r="5" cx="947.32" cy="88.24" fill="#132e65"></circle><circle r="5" cx="970.68" cy="190.58" fill="#132e65"></circle><circle r="5" cx="944.38" cy="387.6" fill="#132e65"></circle><circle r="5" cx="964.21" cy="498.82" fill="#132e65"></circle><circle r="5" cx="947.39" cy="712.15" fill="#132e65"></circle><circle r="5" cx="1094.55" cy="-94.94" fill="#132e65"></circle><circle r="5" cx="1100.66" cy="100.49" fill="#132e65"></circle><circle r="5" cx="1139.07" cy="219.72" fill="#132e65"></circle><circle r="5" cx="1091.7" cy="371.56" fill="#132e65"></circle><circle r="5" cx="1116.94" cy="518.01" fill="#132e65"></circle><circle r="5" cx="1147.83" cy="649.54" fill="#132e65"></circle><circle r="5" cx="1247.84" cy="-83.2" fill="#132e65"></circle><circle r="5" cx="1282.66" cy="48.8" fill="#132e65"></circle><circle r="5" cx="1261.83" cy="200.79" fill="#132e65"></circle><circle r="5" cx="1303.43" cy="361.78" fill="#132e65"></circle><circle r="5" cx="1311.97" cy="521.52" fill="#132e65"></circle><circle r="5" cx="1265.42" cy="694.58" fill="#132e65"></circle><circle r="5" cx="1460.7" cy="-50.91" fill="#132e65"></circle><circle r="5" cx="1389.18" cy="46.36" fill="#132e65"></circle><circle r="5" cx="1436.37" cy="188.05" fill="#132e65"></circle><circle r="5" cx="1458.95" cy="400.21" fill="#132e65"></circle><circle r="5" cx="1393.09" cy="488.91" fill="#132e65"></circle><circle r="5" cx="1428.23" cy="684.18" fill="#132e65"></circle><circle r="5" cx="1591.94" cy="-98.75" fill="#132e65"></circle><circle r="5" cx="1588.18" cy="87.56" fill="#132e65"></circle><circle r="5" cx="1607.76" cy="202.89" fill="#132e65"></circle><circle r="5" cx="1565.3" cy="340.68" fill="#132e65"></circle><circle r="5" cx="1537.62" cy="531.52" fill="#132e65"></circle><circle r="5" cx="1541.49" cy="677.21" fill="#132e65"></circle><path d="M403.54 691.7L403.54 691.7" stroke="hsl(228.5, 77.2%, 51.5%)" stroke-width="1.5"></path><path d="M403.54 691.7L529.27 694.34" stroke="hsl(228.5, 77.2%, 51.5%)" stroke-width="1.5"></path><path d="M403.54 691.7L341.57 550.48" stroke="hsl(228.5, 77.2%, 51.5%)" stroke-width="1.5"></path><path d="M816.69 533.59L816.69 533.59" stroke="hsl(228.5, 77.2%, 51.5%)" stroke-width="1.5"></path><path d="M816.69 533.59L944.88 488.16" stroke="hsl(228.5, 77.2%, 51.5%)" stroke-width="1.5"></path><path d="M816.69 533.59L821.75 692.77" stroke="hsl(228.5, 77.2%, 51.5%)" stroke-width="1.5"></path><path d="M816.69 533.59L639.07 501.84" stroke="hsl(228.5, 77.2%, 51.5%)" stroke-width="1.5"></path><path d="M816.69 533.59L832.7 342.89" stroke="hsl(228.5, 77.2%, 51.5%)" stroke-width="1.5"></path><path d="M816.69 533.59L681.12 694.65" stroke="hsl(228.5, 77.2%, 51.5%)" stroke-width="1.5"></path><path d="M985.66 385.54L985.66 385.54" stroke="hsl(228.5, 77.2%, 51.5%)" stroke-width="1.5"></path><path d="M985.66 385.54L944.88 488.16" stroke="hsl(228.5, 77.2%, 51.5%)" stroke-width="1.5"></path><path d="M985.66 385.54L1136.95 397.19" stroke="hsl(228.5, 77.2%, 51.5%)" stroke-width="1.5"></path><path d="M1091.88 514.09L1091.88 514.09" stroke="hsl(228.5, 77.2%, 51.5%)" stroke-width="1.5"></path><path d="M1091.88 514.09L1136.95 397.19" stroke="hsl(228.5, 77.2%, 51.5%)" stroke-width="1.5"></path><path d="M1091.88 514.09L944.88 488.16" stroke="hsl(228.5, 77.2%, 51.5%)" stroke-width="1.5"></path><path d="M1091.88 514.09L1240.9 555.92" stroke="hsl(228.5, 77.2%, 51.5%)" stroke-width="1.5"></path><path d="M1091.88 514.09L985.66 385.54" stroke="hsl(228.5, 77.2%, 51.5%)" stroke-width="1.5"></path><path d="M1091.88 514.09L1106.53 704.95" stroke="hsl(228.5, 77.2%, 51.5%)" stroke-width="1.5"></path><path d="M1091.88 514.09L971.25 680.64" stroke="hsl(228.5, 77.2%, 51.5%)" stroke-width="1.5"></path><path d="M1607.47 520.16L1607.47 520.16" stroke="hsl(228.5, 77.2%, 51.5%)" stroke-width="1.5"></path><path d="M1607.47 520.16L1607.42 353.12" stroke="hsl(228.5, 77.2%, 51.5%)" stroke-width="1.5"></path><path d="M1607.47 520.16L1582.96 690.78" stroke="hsl(228.5, 77.2%, 51.5%)" stroke-width="1.5"></path><path d="M1607.47 520.16L1416.87 546.05" stroke="hsl(228.5, 77.2%, 51.5%)" stroke-width="1.5"></path><path d="M-83.5 542.93L-83.5 542.93" stroke="hsl(228.5, 77.2%, 51.5%)" stroke-width="1.5"></path><path d="M-83.5 542.93L-61.96 680.25" stroke="hsl(228.5, 77.2%, 51.5%)" stroke-width="1.5"></path><path d="M-83.5 542.93L52.52 505.04" stroke="hsl(228.5, 77.2%, 51.5%)" stroke-width="1.5"></path><path d="M-83.5 542.93L214.68 659.38" stroke="hsl(228.5, 77.2%, 51.5%)" stroke-width="1.5"></path><path d="M-83.5 542.93L240.24 491.02" stroke="hsl(228.5, 77.2%, 51.5%)" stroke-width="1.5"></path><path d="M-61.96 680.25L-61.96 680.25" stroke="hsl(228.5, 77.2%, 51.5%)" stroke-width="1.5"></path><path d="M52.52 505.04L52.52 505.04" stroke="hsl(228.5, 77.2%, 51.5%)" stroke-width="1.5"></path><path d="M52.52 505.04L240.24 491.02" stroke="hsl(228.5, 77.2%, 51.5%)" stroke-width="1.5"></path><path d="M52.52 505.04L-61.96 680.25" stroke="hsl(228.5, 77.2%, 51.5%)" stroke-width="1.5"></path><path d="M52.52 505.04L214.68 659.38" stroke="hsl(228.5, 77.2%, 51.5%)" stroke-width="1.5"></path><path d="M52.52 505.04L341.57 550.48" stroke="hsl(228.5, 77.2%, 51.5%)" stroke-width="1.5"></path><path d="M240.24 491.02L240.24 491.02" stroke="hsl(228.5, 77.2%, 51.5%)" stroke-width="1.5"></path><path d="M240.24 491.02L341.57 550.48" stroke="hsl(228.5, 77.2%, 51.5%)" stroke-width="1.5"></path><path d="M240.24 491.02L214.68 659.38" stroke="hsl(228.5, 77.2%, 51.5%)" stroke-width="1.5"></path><path d="M240.24 491.02L403.54 691.7" stroke="hsl(228.5, 77.2%, 51.5%)" stroke-width="1.5"></path><path d="M240.24 491.02L545.79 558.76" stroke="hsl(228.5, 77.2%, 51.5%)" stroke-width="1.5"></path><path d="M214.68 659.38L214.68 659.38" stroke="hsl(228.5, 77.2%, 51.5%)" stroke-width="1.5"></path><path d="M214.68 659.38L341.57 550.48" stroke="hsl(228.5, 77.2%, 51.5%)" stroke-width="1.5"></path><path d="M214.68 659.38L403.54 691.7" stroke="hsl(228.5, 77.2%, 51.5%)" stroke-width="1.5"></path><path d="M341.57 550.48L341.57 550.48" stroke="hsl(228.5, 77.2%, 51.5%)" stroke-width="1.5"></path><path d="M341.57 550.48L545.79 558.76" stroke="hsl(228.5, 77.2%, 51.5%)" stroke-width="1.5"></path><path d="M341.57 550.48L529.27 694.34" stroke="hsl(228.5, 77.2%, 51.5%)" stroke-width="1.5"></path><path d="M545.79 558.76L545.79 558.76" stroke="hsl(228.5, 77.2%, 51.5%)" stroke-width="1.5"></path><path d="M545.79 558.76L639.07 501.84" stroke="hsl(228.5, 77.2%, 51.5%)" stroke-width="1.5"></path><path d="M545.79 558.76L529.27 694.34" stroke="hsl(228.5, 77.2%, 51.5%)" stroke-width="1.5"></path><path d="M545.79 558.76L681.12 694.65" stroke="hsl(228.5, 77.2%, 51.5%)" stroke-width="1.5"></path><path d="M545.79 558.76L403.54 691.7" stroke="hsl(228.5, 77.2%, 51.5%)" stroke-width="1.5"></path><path d="M545.79 558.76L680.97 366.74" stroke="hsl(228.5, 77.2%, 51.5%)" stroke-width="1.5"></path><path d="M529.27 694.34L529.27 694.34" stroke="hsl(228.5, 77.2%, 51.5%)" stroke-width="1.5"></path><path d="M680.97 366.74L680.97 366.74" stroke="hsl(228.5, 77.2%, 51.5%)" stroke-width="1.5"></path><path d="M680.97 366.74L639.07 501.84" stroke="hsl(228.5, 77.2%, 51.5%)" stroke-width="1.5"></path><path d="M680.97 366.74L832.7 342.89" stroke="hsl(228.5, 77.2%, 51.5%)" stroke-width="1.5"></path><path d="M680.97 366.74L816.69 533.59" stroke="hsl(228.5, 77.2%, 51.5%)" stroke-width="1.5"></path><path d="M639.07 501.84L639.07 501.84" stroke="hsl(228.5, 77.2%, 51.5%)" stroke-width="1.5"></path><path d="M681.12 694.65L681.12 694.65" stroke="hsl(228.5, 77.2%, 51.5%)" stroke-width="1.5"></path><path d="M681.12 694.65L821.75 692.77" stroke="hsl(228.5, 77.2%, 51.5%)" stroke-width="1.5"></path><path d="M681.12 694.65L529.27 694.34" stroke="hsl(228.5, 77.2%, 51.5%)" stroke-width="1.5"></path><path d="M832.7 342.89L832.7 342.89" stroke="hsl(228.5, 77.2%, 51.5%)" stroke-width="1.5"></path><path d="M832.7 342.89L985.66 385.54" stroke="hsl(228.5, 77.2%, 51.5%)" stroke-width="1.5"></path><path d="M832.7 342.89L944.88 488.16" stroke="hsl(228.5, 77.2%, 51.5%)" stroke-width="1.5"></path><path d="M821.75 692.77L821.75 692.77" stroke="hsl(228.5, 77.2%, 51.5%)" stroke-width="1.5"></path><path d="M821.75 692.77L971.25 680.64" stroke="hsl(228.5, 77.2%, 51.5%)" stroke-width="1.5"></path><path d="M821.75 692.77L944.88 488.16" stroke="hsl(228.5, 77.2%, 51.5%)" stroke-width="1.5"></path><path d="M1012.02 224.36L1012.02 224.36" stroke="hsl(228.5, 77.2%, 51.5%)" stroke-width="1.5"></path><path d="M1012.02 224.36L985.66 385.54" stroke="hsl(228.5, 77.2%, 51.5%)" stroke-width="1.5"></path><path d="M1012.02 224.36L1153.31 87.95" stroke="hsl(228.5, 77.2%, 51.5%)" stroke-width="1.5"></path><path d="M1012.02 224.36L1136.95 397.19" stroke="hsl(228.5, 77.2%, 51.5%)" stroke-width="1.5"></path><path d="M1012.02 224.36L832.7 342.89" stroke="hsl(228.5, 77.2%, 51.5%)" stroke-width="1.5"></path><path d="M944.88 488.16L944.88 488.16" stroke="hsl(228.5, 77.2%, 51.5%)" stroke-width="1.5"></path><path d="M944.88 488.16L971.25 680.64" stroke="hsl(228.5, 77.2%, 51.5%)" stroke-width="1.5"></path><path d="M944.88 488.16L1136.95 397.19" stroke="hsl(228.5, 77.2%, 51.5%)" stroke-width="1.5"></path><path d="M971.25 680.64L971.25 680.64" stroke="hsl(228.5, 77.2%, 51.5%)" stroke-width="1.5"></path><path d="M971.25 680.64L1106.53 704.95" stroke="hsl(228.5, 77.2%, 51.5%)" stroke-width="1.5"></path><path d="M1153.31 87.95L1153.31 87.95" stroke="hsl(228.5, 77.2%, 51.5%)" stroke-width="1.5"></path><path d="M1153.31 87.95L1301.02 56.96" stroke="hsl(228.5, 77.2%, 51.5%)" stroke-width="1.5"></path><path d="M1153.31 87.95L1302.67 194.63" stroke="hsl(228.5, 77.2%, 51.5%)" stroke-width="1.5"></path><path d="M1153.31 87.95L1387.6 210.91" stroke="hsl(228.5, 77.2%, 51.5%)" stroke-width="1.5"></path><path d="M1136.95 397.19L1136.95 397.19" stroke="hsl(228.5, 77.2%, 51.5%)" stroke-width="1.5"></path><path d="M1106.53 704.95L1106.53 704.95" stroke="hsl(228.5, 77.2%, 51.5%)" stroke-width="1.5"></path><path d="M1301.02 56.96L1301.02 56.96" stroke="hsl(228.5, 77.2%, 51.5%)" stroke-width="1.5"></path><path d="M1301.02 56.96L1302.67 194.63" stroke="hsl(228.5, 77.2%, 51.5%)" stroke-width="1.5"></path><path d="M1301.02 56.96L1451.44 56.14" stroke="hsl(228.5, 77.2%, 51.5%)" stroke-width="1.5"></path><path d="M1301.02 56.96L1407.52 -53.83" stroke="hsl(228.5, 77.2%, 51.5%)" stroke-width="1.5"></path><path d="M1301.02 56.96L1387.6 210.91" stroke="hsl(228.5, 77.2%, 51.5%)" stroke-width="1.5"></path><path d="M1302.67 194.63L1302.67 194.63" stroke="hsl(228.5, 77.2%, 51.5%)" stroke-width="1.5"></path><path d="M1302.67 194.63L1387.6 210.91" stroke="hsl(228.5, 77.2%, 51.5%)" stroke-width="1.5"></path><path d="M1302.67 194.63L1451.44 56.14" stroke="hsl(228.5, 77.2%, 51.5%)" stroke-width="1.5"></path><path d="M1240.9 555.92L1240.9 555.92" stroke="hsl(228.5, 77.2%, 51.5%)" stroke-width="1.5"></path><path d="M1240.9 555.92L1416.87 546.05" stroke="hsl(228.5, 77.2%, 51.5%)" stroke-width="1.5"></path><path d="M1240.9 555.92L1136.95 397.19" stroke="hsl(228.5, 77.2%, 51.5%)" stroke-width="1.5"></path><path d="M1407.52 -53.83L1407.52 -53.83" stroke="hsl(228.5, 77.2%, 51.5%)" stroke-width="1.5"></path><path d="M1407.52 -53.83L1451.44 56.14" stroke="hsl(228.5, 77.2%, 51.5%)" stroke-width="1.5"></path><path d="M1407.52 -53.83L1599.58 -69.09" stroke="hsl(228.5, 77.2%, 51.5%)" stroke-width="1.5"></path><path d="M1407.52 -53.83L1555.17 82.33" stroke="hsl(228.5, 77.2%, 51.5%)" stroke-width="1.5"></path><path d="M1407.52 -53.83L1387.6 210.91" stroke="hsl(228.5, 77.2%, 51.5%)" stroke-width="1.5"></path><path d="M1407.52 -53.83L1302.67 194.63" stroke="hsl(228.5, 77.2%, 51.5%)" stroke-width="1.5"></path><path d="M1451.44 56.14L1451.44 56.14" stroke="hsl(228.5, 77.2%, 51.5%)" stroke-width="1.5"></path><path d="M1451.44 56.14L1555.17 82.33" stroke="hsl(228.5, 77.2%, 51.5%)" stroke-width="1.5"></path><path d="M1451.44 56.14L1387.6 210.91" stroke="hsl(228.5, 77.2%, 51.5%)" stroke-width="1.5"></path><path d="M1451.44 56.14L1599.58 -69.09" stroke="hsl(228.5, 77.2%, 51.5%)" stroke-width="1.5"></path><path d="M1387.6 210.91L1387.6 210.91" stroke="hsl(228.5, 77.2%, 51.5%)" stroke-width="1.5"></path><path d="M1387.6 210.91L1391.93 385.62" stroke="hsl(228.5, 77.2%, 51.5%)" stroke-width="1.5"></path><path d="M1391.93 385.62L1391.93 385.62" stroke="hsl(228.5, 77.2%, 51.5%)" stroke-width="1.5"></path><path d="M1391.93 385.62L1416.87 546.05" stroke="hsl(228.5, 77.2%, 51.5%)" stroke-width="1.5"></path><path d="M1391.93 385.62L1302.67 194.63" stroke="hsl(228.5, 77.2%, 51.5%)" stroke-width="1.5"></path><path d="M1416.87 546.05L1416.87 546.05" stroke="hsl(228.5, 77.2%, 51.5%)" stroke-width="1.5"></path><path d="M1416.87 546.05L1582.96 690.78" stroke="hsl(228.5, 77.2%, 51.5%)" stroke-width="1.5"></path><path d="M1416.87 546.05L1607.42 353.12" stroke="hsl(228.5, 77.2%, 51.5%)" stroke-width="1.5"></path><path d="M1416.87 546.05L1136.95 397.19" stroke="hsl(228.5, 77.2%, 51.5%)" stroke-width="1.5"></path><path d="M1599.58 -69.09L1599.58 -69.09" stroke="hsl(228.5, 77.2%, 51.5%)" stroke-width="1.5"></path><path d="M1599.58 -69.09L1555.17 82.33" stroke="hsl(228.5, 77.2%, 51.5%)" stroke-width="1.5"></path><path d="M1555.17 82.33L1555.17 82.33" stroke="hsl(228.5, 77.2%, 51.5%)" stroke-width="1.5"></path><path d="M1555.17 82.33L1564.55 231.23" stroke="hsl(228.5, 77.2%, 51.5%)" stroke-width="1.5"></path><path d="M1564.55 231.23L1564.55 231.23" stroke="hsl(228.5, 77.2%, 51.5%)" stroke-width="1.5"></path><path d="M1564.55 231.23L1607.42 353.12" stroke="hsl(228.5, 77.2%, 51.5%)" stroke-width="1.5"></path><path d="M1564.55 231.23L1387.6 210.91" stroke="hsl(228.5, 77.2%, 51.5%)" stroke-width="1.5"></path><path d="M1564.55 231.23L1451.44 56.14" stroke="hsl(228.5, 77.2%, 51.5%)" stroke-width="1.5"></path><path d="M1564.55 231.23L1391.93 385.62" stroke="hsl(228.5, 77.2%, 51.5%)" stroke-width="1.5"></path><path d="M1607.42 353.12L1607.42 353.12" stroke="hsl(228.5, 77.2%, 51.5%)" stroke-width="1.5"></path><path d="M1607.42 353.12L1391.93 385.62" stroke="hsl(228.5, 77.2%, 51.5%)" stroke-width="1.5"></path><path d="M1607.42 353.12L1387.6 210.91" stroke="hsl(228.5, 77.2%, 51.5%)" stroke-width="1.5"></path><path d="M1607.42 353.12L1555.17 82.33" stroke="hsl(228.5, 77.2%, 51.5%)" stroke-width="1.5"></path><path d="M1582.96 690.78L1582.96 690.78" stroke="hsl(228.5, 77.2%, 51.5%)" stroke-width="1.5"></path><path d="M1582.96 690.78L1607.42 353.12" stroke="hsl(228.5, 77.2%, 51.5%)" stroke-width="1.5"></path><circle r="25" cx="403.54" cy="691.7" fill="url(&quot;#SvgjsRadialGradient1003&quot;)"></circle><circle r="25" cx="816.69" cy="533.59" fill="url(&quot;#SvgjsRadialGradient1003&quot;)"></circle><circle r="25" cx="985.66" cy="385.54" fill="url(&quot;#SvgjsRadialGradient1003&quot;)"></circle><circle r="25" cx="1091.88" cy="514.09" fill="url(&quot;#SvgjsRadialGradient1003&quot;)"></circle><circle r="25" cx="1607.47" cy="520.16" fill="url(&quot;#SvgjsRadialGradient1003&quot;)"></circle><circle r="5" cx="-83.5" cy="542.93" fill="#8b9ad9"></circle><circle r="5" cx="-61.96" cy="680.25" fill="#8b9ad9"></circle><circle r="5" cx="52.52" cy="505.04" fill="#8b9ad9"></circle><circle r="5" cx="240.24" cy="491.02" fill="#8b9ad9"></circle><circle r="5" cx="214.68" cy="659.38" fill="#8b9ad9"></circle><circle r="5" cx="341.57" cy="550.48" fill="#8b9ad9"></circle><circle r="5" cx="545.79" cy="558.76" fill="#8b9ad9"></circle><circle r="5" cx="529.27" cy="694.34" fill="#8b9ad9"></circle><circle r="5" cx="680.97" cy="366.74" fill="#8b9ad9"></circle><circle r="5" cx="639.07" cy="501.84" fill="#8b9ad9"></circle><circle r="5" cx="681.12" cy="694.65" fill="#8b9ad9"></circle><circle r="5" cx="832.7" cy="342.89" fill="#8b9ad9"></circle><circle r="5" cx="821.75" cy="692.77" fill="#8b9ad9"></circle><circle r="5" cx="1012.02" cy="224.36" fill="#8b9ad9"></circle><circle r="5" cx="944.88" cy="488.16" fill="#8b9ad9"></circle><circle r="5" cx="971.25" cy="680.64" fill="#8b9ad9"></circle><circle r="5" cx="1153.31" cy="87.95" fill="#8b9ad9"></circle><circle r="5" cx="1136.95" cy="397.19" fill="#8b9ad9"></circle><circle r="5" cx="1106.53" cy="704.95" fill="#8b9ad9"></circle><circle r="5" cx="1301.02" cy="56.96" fill="#8b9ad9"></circle><circle r="5" cx="1302.67" cy="194.63" fill="#8b9ad9"></circle><circle r="5" cx="1240.9" cy="555.92" fill="#8b9ad9"></circle><circle r="5" cx="1407.52" cy="-53.83" fill="#8b9ad9"></circle><circle r="5" cx="1451.44" cy="56.14" fill="#8b9ad9"></circle><circle r="5" cx="1387.6" cy="210.91" fill="#8b9ad9"></circle><circle r="5" cx="1391.93" cy="385.62" fill="#8b9ad9"></circle><circle r="5" cx="1416.87" cy="546.05" fill="#8b9ad9"></circle><circle r="5" cx="1599.58" cy="-69.09" fill="#8b9ad9"></circle><circle r="5" cx="1555.17" cy="82.33" fill="#8b9ad9"></circle><circle r="5" cx="1564.55" cy="231.23" fill="#8b9ad9"></circle><circle r="5" cx="1607.42" cy="353.12" fill="#8b9ad9"></circle><circle r="5" cx="1582.96" cy="690.78" fill="#8b9ad9"></circle></g><defs><mask id="SvgjsMask1002"><rect width="1440" height="560" fill="#ffffff"></rect></mask><radialGradient id="SvgjsRadialGradient1003"><stop stop-color="#ffffff" offset="0.1"></stop><stop stop-color="#1735b3" offset="0.2"></stop><stop stop-color="rgba(23, 53, 179, 0)" offset="1"></stop></radialGradient></defs></svg>