<?xml version="1.0" encoding="UTF-8"?>
<!-- Generator: visioncortex VTracer 0.6.3 -->
<svg version="1.1" xmlns="http://www.w3.org/2000/svg" width="552" height="552">
<path d="M0 0 C3.08 0.21 6.16 0.42 9.24 0.62 C11.2 0.75 13.16 0.89 15.12 1.02 C16.04 1.08 16.96 1.14 17.91 1.2 C24.28 1.66 24.28 1.66 25.4 2.77 C27.3 3.09 29.21 3.39 31.12 3.67 C38.38 4.76 44.75 5.73 50.4 10.77 C51.42 11.68 51.42 11.68 52.46 12.6 C54.63 15.03 55.49 17.01 56.52 20.09 C56.83 20.99 57.14 21.89 57.47 22.82 C57.77 23.8 58.08 24.77 58.4 25.77 C58.74 26.85 59.09 27.93 59.45 29.05 C60.55 33.39 61.04 37.63 61.46 42.09 C61.77 47.6 61.77 47.6 63.4 52.77 C63.49 55.26 63.53 57.73 63.52 60.22 C63.53 61.37 63.53 61.37 63.53 62.55 C63.53 65.09 63.53 67.64 63.53 70.18 C63.53 71.94 63.53 73.71 63.53 75.47 C63.53 79.17 63.53 82.87 63.53 86.57 C63.52 91.31 63.52 96.06 63.53 100.81 C63.53 104.45 63.53 108.1 63.53 111.74 C63.53 113.49 63.53 115.24 63.53 116.99 C63.53 119.44 63.53 121.88 63.52 124.33 C63.53 125.05 63.53 125.78 63.53 126.53 C63.51 131.54 63.51 131.54 62.4 133.77 C61.95 137.49 61.58 141.21 61.23 144.95 C60.77 149.49 60.02 153.47 58.4 157.77 C58.01 159.06 57.63 160.35 57.27 161.65 C56.98 162.68 56.69 163.71 56.4 164.77 C55.74 164.77 55.08 164.77 54.4 164.77 C54.29 165.35 54.19 165.93 54.08 166.52 C53.28 169.15 52.26 170.76 50.4 172.77 C49.41 172.77 48.42 172.77 47.4 172.77 C47.07 173.76 46.74 174.75 46.4 175.77 C38.64 179.81 30.99 179.93 22.4 179.77 C22.4 180.43 22.4 181.09 22.4 181.77 C-4.56 185 -31.85 184.41 -58.92 182.9 C-59.64 182.86 -60.37 182.82 -61.12 182.78 C-69.09 182.34 -76.82 181.59 -84.6 179.77 C-85.54 179.6 -86.48 179.43 -87.45 179.25 C-93.02 178.21 -98.28 176.7 -103.6 174.77 C-103.6 174.11 -103.6 173.45 -103.6 172.77 C-104.2 172.69 -104.8 172.61 -105.42 172.52 C-108.25 171.55 -109.1 170.33 -110.6 167.77 C-110.6 166.78 -110.6 165.79 -110.6 164.77 C-111.26 164.77 -111.92 164.77 -112.6 164.77 C-113.93 158.34 -114.85 152.34 -114.6 145.77 C-115.26 145.77 -115.92 145.77 -116.6 145.77 C-116.69 144.79 -116.69 144.79 -116.77 143.79 C-117.02 140.82 -117.28 137.86 -117.54 134.9 C-117.67 133.35 -117.67 133.35 -117.81 131.77 C-117.89 130.78 -117.98 129.8 -118.07 128.78 C-118.15 127.87 -118.23 126.96 -118.31 126.02 C-118.48 123.74 -118.48 123.74 -119.6 121.77 C-119.7 120.12 -119.73 118.47 -119.73 116.82 C-119.74 115.79 -119.74 114.76 -119.74 113.7 C-119.74 112.58 -119.74 111.46 -119.74 110.31 C-119.74 109.16 -119.74 108.02 -119.74 106.84 C-119.74 104.42 -119.74 101.99 -119.73 99.57 C-119.73 95.85 -119.73 92.14 -119.74 88.42 C-119.74 86.07 -119.74 83.72 -119.74 81.37 C-119.74 80.26 -119.74 79.14 -119.74 77.99 C-119.74 76.96 -119.74 75.92 -119.73 74.86 C-119.73 73.94 -119.73 73.03 -119.73 72.09 C-119.6 69.77 -119.6 69.77 -118.6 66.77 C-118.4 64.58 -118.24 62.37 -118.1 60.17 C-117.98 58.23 -117.98 58.23 -117.85 56.25 C-117.73 54.19 -117.6 52.13 -117.48 50.07 C-117.36 48.09 -117.23 46.1 -117.1 44.11 C-117.03 42.92 -116.96 41.73 -116.89 40.5 C-116.6 37.77 -116.6 37.77 -115.6 36.77 C-115.04 33.92 -114.52 31.08 -114.04 28.21 C-113.9 27.4 -113.76 26.6 -113.62 25.77 C-113.28 23.77 -112.94 21.77 -112.6 19.77 C-111.94 19.77 -111.28 19.77 -110.6 19.77 C-110.58 18.91 -110.56 18.04 -110.54 17.15 C-109.22 12.39 -106.65 10.44 -102.6 7.77 C-96.44 4.74 -90.28 4.02 -83.48 3.2 C-80.71 3.08 -80.71 3.08 -79.6 1.77 C-76.87 1.47 -74.16 1.22 -71.42 1.02 C-70.58 0.95 -69.74 0.89 -68.88 0.82 C-67.08 0.68 -65.28 0.55 -63.48 0.42 C-60.8 0.22 -58.12 0 -55.44 -0.21 C-36.83 -1.64 -18.61 -1.3 0 0 Z " fill="#0C0C4B" transform="translate(387.6044921875,84.226806640625)"/>
<path d="M0 0 C0.96 0.01 1.92 0.01 2.9 0.02 C4.46 0.02 4.46 0.02 6.04 0.03 C7.13 0.03 8.22 0.04 9.34 0.05 C10.98 0.06 10.98 0.06 12.65 0.06 C15.36 0.08 18.07 0.09 20.78 0.11 C20.78 0.77 20.78 1.43 20.78 2.11 C22.69 2.05 22.69 2.05 24.65 1.99 C35.21 2.02 45.05 5.12 53.78 11.11 C55.7 14.96 55.25 19.68 55.49 23.93 C55.57 27.01 55.57 27.01 56.78 29.11 C57.45 36.01 56.37 41.73 53.78 48.11 C52.15 47.97 50.52 47.83 48.9 47.68 C48 47.59 47.09 47.51 46.16 47.43 C43.78 47.11 43.78 47.11 41.78 46.11 C41.78 45.45 41.78 44.79 41.78 44.11 C40.92 43.98 40.07 43.85 39.19 43.71 C38.08 43.53 36.98 43.36 35.84 43.18 C34.74 43 33.63 42.83 32.5 42.65 C29.78 42.11 29.78 42.11 28.78 41.11 C22.95 40.01 17.2 39.93 11.28 39.93 C10.36 39.91 9.45 39.9 8.51 39.89 C3.21 39.88 -1.14 40.44 -6.22 42.11 C-8.2 42.52 -10.18 42.9 -12.16 43.24 C-13.12 43.41 -14.08 43.57 -15.06 43.75 C-16.13 43.93 -16.13 43.93 -17.22 44.11 C-17.22 44.77 -17.22 45.43 -17.22 46.11 C-18.8 47.19 -18.8 47.19 -20.91 48.36 C-23.86 50.11 -25.98 51.74 -28.1 54.43 C-28.8 55.31 -29.5 56.2 -30.22 57.11 C-30.88 57.11 -31.54 57.11 -32.22 57.11 C-32.49 57.98 -32.76 58.85 -33.04 59.74 C-34.2 63.03 -35.61 66.02 -37.22 69.11 C-37.88 69.11 -38.54 69.11 -39.22 69.11 C-39.36 70.26 -39.49 71.4 -39.63 72.58 C-39.81 74.07 -39.98 75.56 -40.16 77.05 C-40.25 77.81 -40.34 78.56 -40.43 79.34 C-41.11 85 -41.11 85 -42.22 86.11 C-42.32 88.96 -42.36 91.77 -42.35 94.61 C-42.35 95.41 -42.36 96.21 -42.36 97.03 C-42.73 100.88 -42.73 100.88 -41.22 104.11 C-40.82 106.8 -40.47 109.48 -40.16 112.18 C-40.07 112.93 -39.98 113.69 -39.89 114.47 C-39.66 116.35 -39.44 118.23 -39.22 120.11 C-38.56 120.11 -37.9 120.11 -37.22 120.11 C-36.89 122.09 -36.56 124.07 -36.22 126.11 C-35.56 126.11 -34.9 126.11 -34.22 126.11 C-33.18 127.75 -32.19 129.42 -31.22 131.11 C-30.67 131.84 -30.11 132.56 -29.54 133.3 C-28.22 135.11 -28.22 135.11 -28.22 137.11 C-26.9 137.44 -25.58 137.77 -24.22 138.11 C-24.22 138.77 -24.22 139.43 -24.22 140.11 C-22.24 140.77 -20.26 141.43 -18.22 142.11 C-18.22 142.77 -18.22 143.43 -18.22 144.11 C-17.51 144.25 -16.8 144.38 -16.07 144.52 C-15.15 144.69 -14.23 144.87 -13.29 145.05 C-12.37 145.23 -11.45 145.4 -10.51 145.58 C-8.22 146.11 -8.22 146.11 -7.22 147.11 C-1.25 148.27 4.64 148.23 10.71 148.18 C14.03 148.16 17.35 148.13 20.78 148.11 C20.78 138.87 20.78 129.63 20.78 120.11 C17.03 118.24 15.7 117.85 11.75 117.77 C10.79 117.74 9.83 117.71 8.85 117.68 C7.85 117.66 6.86 117.64 5.84 117.61 C3.87 117.57 1.9 117.52 -0.06 117.46 C-0.93 117.44 -1.8 117.42 -2.7 117.4 C-5.49 117.08 -7.68 116.26 -10.22 115.11 C-10.27 110.88 -10.31 106.64 -10.33 102.41 C-10.34 100.96 -10.36 99.52 -10.38 98.08 C-10.4 96.01 -10.41 93.94 -10.42 91.87 C-10.43 90.62 -10.44 89.38 -10.45 88.09 C-10.22 85.11 -10.22 85.11 -8.22 83.11 C-5.33 82.87 -5.33 82.87 -1.57 82.89 C-0.89 82.89 -0.21 82.89 0.5 82.89 C2.76 82.89 5.02 82.9 7.28 82.92 C8.85 82.92 10.42 82.92 11.98 82.93 C16.11 82.93 20.24 82.95 24.36 82.98 C28.57 83 32.78 83.01 36.99 83.02 C45.25 83.04 53.51 83.07 61.78 83.11 C63.38 97.78 64.09 112.28 64.04 127.04 C64.03 130.24 64.04 133.45 64.05 136.66 C64.06 146.63 63.85 156.54 62.95 166.48 C62.88 167.31 62.81 168.15 62.74 169 C62.31 173.14 62 175.45 58.78 178.11 C53.7 180.7 49.43 181.62 43.78 182.11 C43.78 182.77 43.78 183.43 43.78 184.11 C36.77 185.77 30.17 186.41 22.97 186.38 C21.98 186.38 20.98 186.38 19.95 186.38 C17.85 186.39 15.75 186.38 13.65 186.37 C10.48 186.36 7.31 186.37 4.14 186.39 C-22.44 186.41 -22.44 186.41 -34.22 181.11 C-35.04 180.76 -35.86 180.4 -36.71 180.03 C-38.89 179.07 -41.06 178.1 -43.22 177.11 C-43.22 176.45 -43.22 175.79 -43.22 175.11 C-45.53 174.45 -47.84 173.79 -50.22 173.11 C-50.22 172.45 -50.22 171.79 -50.22 171.11 C-51.03 170.82 -51.83 170.54 -52.66 170.24 C-55.22 169.11 -55.22 169.11 -56.22 167.11 C-57.21 166.78 -58.2 166.45 -59.22 166.11 C-59.22 165.45 -59.22 164.79 -59.22 164.11 C-60.54 163.45 -61.86 162.79 -63.22 162.11 C-63.22 161.45 -63.22 160.79 -63.22 160.11 C-63.88 160.11 -64.54 160.11 -65.22 160.11 C-65.33 159.47 -65.43 158.83 -65.54 158.18 C-65.76 157.5 -65.99 156.81 -66.22 156.11 C-67.21 155.78 -68.2 155.45 -69.22 155.11 C-69.91 153.05 -69.91 153.05 -70.22 151.11 C-70.88 151.11 -71.54 151.11 -72.22 151.11 C-72.66 150.24 -73.09 149.37 -73.54 148.48 C-74.59 146.38 -75.65 144.3 -76.72 142.22 C-81.8 132.35 -84.45 124 -85.8 112.96 C-85.92 110.22 -85.92 110.22 -87.22 109.11 C-87.31 107.11 -87.33 105.11 -87.32 103.11 C-87.32 101.89 -87.32 100.68 -87.31 99.43 C-87.3 98.15 -87.3 96.87 -87.29 95.55 C-87.28 94.27 -87.28 92.98 -87.27 91.66 C-87.26 88.48 -87.25 85.3 -87.22 82.11 C-86.56 82.11 -85.9 82.11 -85.22 82.11 C-85.25 81.51 -85.27 80.9 -85.3 80.28 C-85.5 70.86 -83.73 62.81 -80.22 54.11 C-79.89 53.12 -79.56 52.13 -79.22 51.11 C-78.56 51.11 -77.9 51.11 -77.22 51.11 C-76.89 49.46 -76.56 47.81 -76.22 46.11 C-75.56 46.11 -74.9 46.11 -74.22 46.11 C-74.01 44.94 -74.01 44.94 -73.79 43.74 C-73.22 41.11 -73.22 41.11 -72.22 39.11 C-71.56 39.11 -70.9 39.11 -70.22 39.11 C-70.14 38.54 -70.06 37.96 -69.97 37.36 C-69.01 34.46 -67.54 33.08 -65.22 31.11 C-64.56 31.11 -63.9 31.11 -63.22 31.11 C-63.14 30.53 -63.06 29.95 -62.97 29.35 C-62.01 26.46 -60.6 25.32 -58.29 23.36 C-57.58 22.75 -56.87 22.14 -56.14 21.5 C-54.22 20.11 -54.22 20.11 -52.22 20.11 C-52.22 19.45 -52.22 18.79 -52.22 18.11 C-50.77 17.28 -49.31 16.44 -47.85 15.61 C-47.04 15.15 -46.23 14.69 -45.39 14.21 C-43.22 13.11 -43.22 13.11 -41.22 13.11 C-41.22 12.45 -41.22 11.79 -41.22 11.11 C-37.76 10.62 -37.76 10.62 -34.22 10.11 C-34.22 9.45 -34.22 8.79 -34.22 8.11 C-30.35 6.92 -27.31 6.11 -23.22 6.11 C-23.22 5.45 -23.22 4.79 -23.22 4.11 C-22.62 4.03 -22.02 3.94 -21.4 3.85 C-18.7 3.47 -15.99 3.07 -13.29 2.68 C-11.87 2.47 -11.87 2.47 -10.42 2.27 C-9.52 2.14 -8.62 2 -7.7 1.87 C-6.86 1.75 -6.03 1.63 -5.17 1.5 C-2.76 1.02 -2.54 0.13 0 0 Z " fill="#0C0B49" transform="translate(209.224853515625,310.886474609375)"/>
<path d="M0 0 C0.83 -0.01 1.66 -0.03 2.51 -0.04 C3.4 -0.05 4.29 -0.05 5.21 -0.06 C6.13 -0.07 7.04 -0.08 7.99 -0.09 C9.93 -0.1 11.88 -0.11 13.82 -0.12 C16.79 -0.14 19.76 -0.18 22.73 -0.22 C24.62 -0.23 26.51 -0.24 28.39 -0.25 C29.28 -0.27 30.17 -0.28 31.09 -0.3 C37.22 -0.28 37.22 -0.28 40.46 2.02 C41.87 4.18 41.87 4.18 41.87 7.18 C42.53 7.18 43.19 7.18 43.87 7.18 C44.24 8.13 44.62 9.09 45 10.07 C47.36 16.04 49.72 21.98 52.43 27.8 C59.87 43.91 59.87 43.91 59.87 50.18 C60.53 50.18 61.19 50.18 61.87 50.18 C62.46 52.06 62.46 52.06 63.05 53.99 C64.26 57.63 65.68 61.08 67.3 64.55 C71.22 73.03 74.25 80.8 74.87 90.18 C75.53 90.18 76.19 90.18 76.87 90.18 C77.2 92.82 77.53 95.46 77.87 98.18 C78.53 98.18 79.19 98.18 79.87 98.18 C80.04 98.93 80.21 99.68 80.38 100.45 C81.8 106.43 83.5 112 85.89 117.66 C87.28 121.24 88.22 124.91 89.16 128.63 C89.82 131.21 89.82 131.21 90.91 133.7 C91.88 136.21 92.25 138.32 92.49 140.99 C92.6 142.17 92.6 142.17 92.72 143.38 C92.77 143.98 92.82 144.57 92.87 145.18 C93.53 145.18 94.19 145.18 94.87 145.18 C95.2 148.48 95.53 151.78 95.87 155.18 C96.53 155.18 97.19 155.18 97.87 155.18 C98.07 156.1 98.28 157.03 98.49 157.99 C98.76 159.18 99.03 160.38 99.3 161.61 C99.57 162.81 99.84 164 100.11 165.24 C100.57 168.05 100.57 168.05 101.87 169.18 C102.34 176.58 102.34 176.58 100.59 178.78 C97.6 181.2 93.85 180.48 90.18 180.36 C89.33 180.34 88.48 180.32 87.6 180.3 C85.8 180.25 84 180.2 82.2 180.14 C79.44 180.05 76.69 180 73.94 179.94 C72.19 179.9 70.43 179.85 68.68 179.79 C67.86 179.78 67.04 179.76 66.19 179.75 C62.73 179.61 60.43 179.49 57.36 177.79 C55.31 175.58 55.13 173.83 54.74 170.86 C54.29 167.78 53.85 165.13 52.8 162.18 C51.38 157.61 51.19 152.94 50.87 148.18 C50.21 148.18 49.55 148.18 48.87 148.18 C48.54 147.52 48.21 146.86 47.87 146.18 C45.84 145.52 45.84 145.52 43.87 145.18 C43.87 144.52 43.87 143.86 43.87 143.18 C23.74 143.18 3.61 143.18 -17.13 143.18 C-17.46 144.83 -17.79 146.48 -18.13 148.18 C-18.57 149.56 -19.02 150.94 -19.51 152.3 C-21.29 157.53 -22.71 162.84 -24.13 168.18 C-25.07 171.53 -26.03 174.87 -27.13 178.18 C-31.08 179.49 -34.84 179.3 -38.96 179.27 C-39.82 179.27 -40.68 179.27 -41.57 179.27 C-44.32 179.26 -47.07 179.25 -49.82 179.24 C-51.69 179.23 -53.55 179.23 -55.42 179.23 C-59.99 179.21 -64.56 179.2 -69.13 179.18 C-70.21 174.56 -69.76 170.83 -68.82 166.24 C-68.69 165.55 -68.56 164.86 -68.42 164.15 C-67.62 160.03 -66.51 156.15 -65.13 152.18 C-64.43 149.81 -63.75 147.43 -63.07 145.05 C-62.73 143.85 -62.39 142.65 -62.03 141.42 C-61.36 139.01 -60.72 136.61 -60.13 134.18 C-59.47 134.18 -58.81 134.18 -58.13 134.18 C-58.01 132.35 -58.01 132.35 -57.88 130.49 C-57.2 124.14 -55.14 118.21 -53.13 112.18 C-52.47 112.18 -51.81 112.18 -51.13 112.18 C-51.07 111.17 -51.01 110.16 -50.95 109.11 C-50.1 102.23 -47.41 95.7 -45.13 89.18 C-44.52 87.37 -43.92 85.55 -43.32 83.74 C-42.93 82.56 -42.54 81.39 -42.13 80.18 C-41.47 80.18 -40.81 80.18 -40.13 80.18 C-39.47 76.55 -38.81 72.92 -38.13 69.18 C-37.47 69.18 -36.81 69.18 -36.13 69.18 C-36.05 68.25 -35.97 67.32 -35.88 66.36 C-35.15 61.05 -33.07 56.15 -31.13 51.18 C-30.47 51.18 -29.81 51.18 -29.13 51.18 C-28.93 49.96 -28.72 48.74 -28.51 47.49 C-27.31 41.97 -24.94 37.15 -22.47 32.09 C-21.39 29.74 -20.63 27.7 -20.13 25.18 C-19.47 25.18 -18.81 25.18 -18.13 25.18 C-17.99 24.08 -17.84 22.99 -17.7 21.86 C-17.13 18.18 -17.13 18.18 -16.13 15.18 C-15.47 15.18 -14.81 15.18 -14.13 15.18 C-13.8 12.87 -13.47 10.56 -13.13 8.18 C-12.47 8.18 -11.81 8.18 -11.13 8.18 C-10.47 6.53 -9.81 4.88 -9.13 3.18 C-8.47 3.18 -7.81 3.18 -7.13 3.18 C-7.13 2.52 -7.13 1.86 -7.13 1.18 C-4.43 0.27 -2.79 0.04 0 0 Z M12.87 45.18 C12.67 45.85 12.48 46.53 12.28 47.22 C12.02 48.12 11.76 49.01 11.49 49.93 C11.11 51.25 11.11 51.25 10.72 52.6 C9.87 55.18 9.87 55.18 8.77 57.26 C7.59 59.43 7.59 59.43 7.87 63.18 C7.21 63.18 6.55 63.18 5.87 63.18 C5.21 66.81 4.55 70.44 3.87 74.18 C3.21 74.18 2.55 74.18 1.87 74.18 C1.58 75.39 1.58 75.39 1.28 76.63 C1.02 77.69 0.76 78.76 0.49 79.86 C0.24 80.92 -0.02 81.98 -0.28 83.06 C-1.13 86.18 -1.13 86.18 -2.23 88.82 C-3.37 91.38 -3.37 91.38 -3.13 95.18 C-3.79 95.18 -4.45 95.18 -5.13 95.18 C-5.49 97.32 -5.85 99.47 -6.2 101.61 C-6.39 102.81 -6.59 104 -6.79 105.24 C-6.9 106.21 -7.02 107.18 -7.13 108.18 C-4.69 110.62 1.46 109.67 4.74 109.8 C5.82 109.85 6.89 109.89 8 109.94 C17.67 110.28 27.22 109.92 36.87 109.18 C37.9 105.76 37.64 103.75 36.55 100.33 C35.7 97.65 34.97 94.95 34.24 92.24 C33.98 91.28 33.72 90.32 33.45 89.34 C33.26 88.62 33.07 87.91 32.87 87.18 C32.21 87.18 31.55 87.18 30.87 87.18 C30.77 86.03 30.67 84.89 30.57 83.72 C29.98 78.99 28.44 74.93 26.62 70.55 C25.98 68.98 25.35 67.41 24.72 65.83 C24.41 65.06 24.1 64.28 23.78 63.48 C22.41 60.03 21.16 56.55 19.93 53.05 C19.53 51.92 19.13 50.78 18.72 49.61 C18.44 48.8 18.16 48 17.87 47.18 C17.21 47.18 16.55 47.18 15.87 47.18 C15.87 46.52 15.87 45.86 15.87 45.18 C14.88 45.18 13.89 45.18 12.87 45.18 Z " fill="#0B0B49" transform="translate(353.132568359375,313.822998046875)"/>
<path d="M0 0 C2.06 0.14 4.13 0.27 6.19 0.4 C8.14 0.53 8.14 0.53 10.13 0.67 C11.32 0.74 12.5 0.82 13.71 0.9 C16.41 1.2 16.41 1.2 17.41 2.2 C18.74 2.49 20.09 2.74 21.44 2.95 C22.66 3.15 22.66 3.15 23.89 3.35 C24.74 3.49 25.59 3.62 26.47 3.76 C27.32 3.9 28.18 4.04 29.06 4.18 C31.17 4.53 33.29 4.86 35.41 5.2 C35.41 5.86 35.41 6.52 35.41 7.2 C36.54 7.32 37.68 7.45 38.85 7.58 C40.02 7.78 41.2 7.99 42.41 8.2 C42.9 9.19 42.9 9.19 43.41 10.2 C45.42 11.33 45.42 11.33 47.41 12.2 C47.41 13.19 47.41 14.18 47.41 15.2 C48.07 15.2 48.73 15.2 49.41 15.2 C52.68 22.85 54.13 30 55.01 38.21 C55.08 41.08 55.08 41.08 56.41 42.2 C56.64 44.44 56.8 46.69 56.94 48.93 C57.01 49.98 57.01 49.98 57.07 51.05 C57.21 53.35 57.34 55.65 57.47 57.95 C57.51 58.74 57.56 59.52 57.61 60.34 C59.07 86.66 60.04 114.01 56.41 140.2 C56.08 140.53 55.75 140.86 55.41 141.2 C55.15 142.53 54.94 143.87 54.76 145.21 C54.58 146.44 54.58 146.44 54.4 147.7 C54.16 149.43 53.92 151.15 53.69 152.88 C52.84 158.69 51.95 164.43 47.84 168.91 C47.07 169.45 47.07 169.45 46.28 170.01 C43.38 171.89 43.38 171.89 42.41 174.2 C39.9 175.27 39.9 175.27 36.72 176.33 C35.69 176.68 34.65 177.03 33.58 177.4 C30.39 178.21 27.69 178.35 24.41 178.2 C24.08 178.86 23.75 179.52 23.41 180.2 C22.7 180.19 21.99 180.18 21.26 180.17 C20.34 180.16 19.42 180.15 18.47 180.14 C17.1 180.12 17.1 180.12 15.69 180.1 C13.44 179.94 13.44 179.94 12.41 181.2 C2.75 182.63 -7.11 182.32 -16.84 182.26 C-18.38 182.26 -19.91 182.25 -21.45 182.25 C-25.16 182.24 -28.88 182.22 -32.59 182.2 C-34.07 179.24 -33.72 176.6 -33.72 173.3 C-33.72 172.58 -33.72 171.86 -33.72 171.12 C-33.73 168.7 -33.72 166.28 -33.72 163.86 C-33.72 162.14 -33.72 160.41 -33.73 158.68 C-33.73 153.97 -33.73 149.26 -33.73 144.56 C-33.72 139.64 -33.73 134.72 -33.73 129.8 C-33.73 121.54 -33.73 113.28 -33.72 105.02 C-33.72 95.46 -33.72 85.9 -33.72 76.34 C-33.73 68.15 -33.73 59.95 -33.73 51.75 C-33.73 46.85 -33.73 41.95 -33.73 37.05 C-33.73 32.44 -33.73 27.84 -33.72 23.23 C-33.72 21.54 -33.72 19.84 -33.72 18.15 C-33.73 15.84 -33.72 13.54 -33.72 11.23 C-33.72 9.94 -33.72 8.64 -33.72 7.31 C-33.59 4.2 -33.59 4.2 -32.59 1.2 C-22.22 -2.45 -10.76 -0.74 0 0 Z " fill="#0C0C4A" transform="translate(180.59228515625,84.799560546875)"/>
<path d="M0 0 C2 -0.04 4 -0.04 6 0 C6.33 0.33 6.66 0.66 7 1 C8.33 1.26 9.67 1.47 11.01 1.65 C12.24 1.83 12.24 1.83 13.5 2.01 C15.23 2.25 16.95 2.49 18.68 2.72 C24.93 3.63 30.25 4.9 35.38 8.81 C37.38 11.52 37.7 13.68 38 17 C38.66 17 39.32 17 40 17 C40.2 18.07 40.41 19.14 40.62 20.25 C40.89 21.64 41.17 23.04 41.44 24.44 C41.57 25.14 41.71 25.85 41.85 26.58 C42.28 30.08 42.28 30.08 44 33 C44.22 34.69 44.37 36.39 44.5 38.09 C44.58 39.12 44.66 40.15 44.75 41.21 C44.92 43.4 45.08 45.6 45.25 47.79 C45.33 48.82 45.41 49.85 45.5 50.91 C45.61 52.33 45.61 52.33 45.72 53.79 C45.77 55.97 45.77 55.97 47 57 C47.1 59.11 47.13 61.23 47.13 63.34 C47.13 64 47.13 64.66 47.13 65.35 C47.14 67.54 47.14 69.74 47.13 71.94 C47.13 73.46 47.13 74.98 47.14 76.5 C47.14 79.69 47.14 82.88 47.13 86.07 C47.12 90.17 47.13 94.27 47.13 98.37 C47.14 101.51 47.14 104.65 47.13 107.8 C47.13 109.31 47.13 110.82 47.14 112.33 C47.14 114.44 47.13 116.55 47.13 118.66 C47.13 119.86 47.13 121.07 47.13 122.3 C47 125 47 125 46 126 C45.77 127.63 45.61 129.27 45.46 130.91 C45.38 131.9 45.29 132.89 45.2 133.91 C45.11 134.95 45.03 135.99 44.94 137.06 C44.85 138.11 44.76 139.15 44.66 140.23 C44.44 142.82 44.22 145.41 44 148 C43.34 148 42.68 148 42 148 C42.04 148.99 42.08 149.98 42.12 151 C42.14 155.24 41.14 158.93 40 163 C39.34 163 38.68 163 38 163 C37.92 163.58 37.84 164.16 37.75 164.75 C36.78 167.65 35.31 169.04 33 171 C32.34 171 31.68 171 31 171 C31 171.66 31 172.32 31 173 C20.48 177.09 11.32 178.54 0 178 C-0.66 177.67 -1.32 177.34 -2 177 C-3.52 170.28 -3.14 163.32 -3.13 156.48 C-3.13 155.11 -3.13 153.74 -3.13 152.37 C-3.14 148.66 -3.14 144.95 -3.13 141.24 C-3.13 137.33 -3.13 133.42 -3.14 129.51 C-3.14 122.92 -3.14 116.33 -3.13 109.75 C-3.12 102.2 -3.13 94.65 -3.13 87.11 C-3.14 80.58 -3.14 74.06 -3.13 67.54 C-3.13 63.66 -3.13 59.79 -3.14 55.91 C-3.15 37.92 -2.91 19.97 -2 2 C-1.34 2 -0.68 2 0 2 C0 1.34 0 0.68 0 0 Z " fill="#0B0B49" transform="translate(70,86)"/>
<path d="M0 0 C1.26 0 1.26 0 2.55 0 C5.24 0.01 7.93 0.02 10.62 0.04 C12.44 0.04 14.26 0.04 16.08 0.05 C20.55 0.06 25.02 0.08 29.49 0.1 C29.49 0.76 29.49 1.42 29.49 2.1 C30.15 2.1 30.81 2.1 31.49 2.1 C32.41 11.87 32.65 21.59 32.67 31.4 C32.68 32.99 32.68 34.58 32.69 36.18 C32.71 41.35 32.72 46.52 32.73 51.7 C32.73 53.49 32.74 55.28 32.74 57.07 C32.76 65.46 32.78 73.85 32.78 82.25 C32.79 91.92 32.82 101.6 32.86 111.27 C32.89 118.77 32.91 126.26 32.91 133.76 C32.91 138.23 32.92 142.7 32.95 147.18 C32.97 151.37 32.97 155.56 32.96 159.76 C32.96 161.3 32.97 162.84 32.98 164.38 C33 166.48 32.99 168.58 32.98 170.67 C32.98 171.85 32.98 173.02 32.99 174.23 C32.49 177.1 32.49 177.1 30.7 178.98 C27.27 180.71 23.86 180.41 20.11 180.28 C19.3 180.26 18.5 180.24 17.66 180.22 C15.96 180.17 14.25 180.12 12.55 180.06 C9.94 179.97 7.33 179.92 4.71 179.86 C3.05 179.82 1.4 179.77 -0.26 179.71 C-1.04 179.7 -1.82 179.68 -2.63 179.67 C-7.96 179.45 -7.96 179.45 -10.21 177.99 C-12.17 175.12 -11.88 172.73 -11.88 169.27 C-11.88 168.57 -11.88 167.88 -11.89 167.16 C-11.89 164.81 -11.88 162.47 -11.86 160.12 C-11.87 158.44 -11.87 156.77 -11.87 155.09 C-11.88 150.52 -11.86 145.96 -11.84 141.4 C-11.83 136.62 -11.83 131.85 -11.83 127.08 C-11.83 119.06 -11.81 111.05 -11.79 103.03 C-11.76 92.74 -11.75 82.45 -11.75 72.16 C-11.74 63.32 -11.73 54.47 -11.72 45.63 C-11.71 42.79 -11.71 39.94 -11.71 37.1 C-11.7 32.63 -11.69 28.16 -11.68 23.69 C-11.67 22.05 -11.67 20.41 -11.67 18.77 C-11.67 16.53 -11.66 14.29 -11.65 12.05 C-11.65 10.8 -11.64 9.54 -11.64 8.25 C-11.53 5.65 -11.43 3.52 -10.51 1.1 C-7.23 -0.54 -3.6 -0.02 0 0 Z " fill="#0C0C49" transform="translate(78.5078125,313.90234375)"/>
<path d="M0 0 C2 2 2 2 2.27 4.31 C2.26 5.2 2.26 6.09 2.25 7 C2.26 7.89 2.26 8.77 2.27 9.69 C2 12 2 12 0 14 C0 13.01 0 12.02 0 11 C-0.66 10.67 -1.32 10.34 -2 10 C-1.34 10 -0.68 10 0 10 C0 6.7 0 3.4 0 0 Z " fill="#000017" transform="translate(264,338)"/>
<path d="" fill="#FFFFFF" transform="translate(0,0)"/>
<path d="" fill="#FFFFFF" transform="translate(0,0)"/>
<path d="" fill="#FFFFFF" transform="translate(0,0)"/>
<path d="" fill="#FFFFFF" transform="translate(0,0)"/>
<path d="" fill="#FFFFFF" transform="translate(0,0)"/>
<path d="M0 0 C2 1 2 1 2 1 Z " fill="#FFFFFF" transform="translate(306,381)"/>
<path d="M0 0 C2 1 2 1 2 1 Z " fill="#FFFFFF" transform="translate(244,377)"/>
<path d="" fill="#FFFFFF" transform="translate(0,0)"/>
<path d="" fill="#FFFFFF" transform="translate(0,0)"/>
<path d="M0 0 C2 1 2 1 2 1 Z " fill="#FFFFFF" transform="translate(415,72)"/>
<path d="M0 0 C2 1 2 1 2 1 Z " fill="#FFFFFF" transform="translate(328,65)"/>
<path d="" fill="#FFFFFF" transform="translate(0,0)"/>
<path d="M0 0 C2 1 2 1 2 1 Z " fill="#FFFFFF" transform="translate(313,47)"/>
<path d="M0 0 C2 1 2 1 2 1 Z " fill="#FFFFFF" transform="translate(99,10)"/>
<path d="M0 0 C2 1 2 1 2 1 Z " fill="#FFFFFF" transform="translate(255,3)"/>
<path d="" fill="#FFFFFF" transform="translate(0,0)"/>
<path d="" fill="#FFFFFF" transform="translate(0,0)"/>
<path d="" fill="#FFFFFF" transform="translate(0,0)"/>
<path d="" fill="#FFFFFF" transform="translate(0,0)"/>
<path d="" fill="#FFFFFF" transform="translate(0,0)"/>
<path d="" fill="#FFFFFF" transform="translate(0,0)"/>
<path d="" fill="#FFFFFF" transform="translate(0,0)"/>
<path d="" fill="#FFFFFF" transform="translate(0,0)"/>
<path d="" fill="#FFFFFF" transform="translate(0,0)"/>
<path d="" fill="#FFFFFF" transform="translate(0,0)"/>
<path d="" fill="#FFFFFF" transform="translate(0,0)"/>
<path d="" fill="#FFFFFF" transform="translate(0,0)"/>
<path d="" fill="#FFFFFF" transform="translate(0,0)"/>
<path d="" fill="#FFFFFF" transform="translate(0,0)"/>
<path d="" fill="#FFFFFF" transform="translate(0,0)"/>
<path d="" fill="#FFFFFF" transform="translate(0,0)"/>
<path d="" fill="#FFFFFF" transform="translate(0,0)"/>
<path d="" fill="#FFFFFF" transform="translate(0,0)"/>
<path d="" fill="#FFFFFF" transform="translate(0,0)"/>
<path d="" fill="#FFFFFF" transform="translate(0,0)"/>
<path d="" fill="#FFFFFF" transform="translate(0,0)"/>
<path d="" fill="#FFFFFF" transform="translate(0,0)"/>
<path d="" fill="#FFFFFF" transform="translate(0,0)"/>
<path d="" fill="#FFFFFF" transform="translate(0,0)"/>
<path d="" fill="#FFFFFF" transform="translate(0,0)"/>
<path d="" fill="#FFFFFF" transform="translate(0,0)"/>
<path d="" fill="#FFFFFF" transform="translate(0,0)"/>
<path d="" fill="#FFFFFF" transform="translate(0,0)"/>
<path d="" fill="#FFFFFF" transform="translate(0,0)"/>
<path d="" fill="#FFFFFF" transform="translate(0,0)"/>
<path d="" fill="#FFFFFF" transform="translate(0,0)"/>
<path d="" fill="#FFFFFF" transform="translate(0,0)"/>
<path d="" fill="#FFFFFF" transform="translate(0,0)"/>
<path d="" fill="#FFFFFF" transform="translate(0,0)"/>
<path d="" fill="#FFFFFF" transform="translate(0,0)"/>
</svg>
