<svg id="svg" version="1.1" xmlns="http://www.w3.org/2000/svg" xmlns:xlink="http://www.w3.org/1999/xlink" width="400" height="364.8902821316614" viewBox="0, 0, 400,364.8902821316614"><g id="svgg"><path id="path0" d="M251.460 44.394 C 241.762 44.776,223.998 46.399,221.800 47.103 C 220.549 47.504,217.719 48.077,215.511 48.377 C 204.446 49.879,200.580 54.777,198.747 69.617 C 198.443 72.076,197.953 75.032,197.657 76.186 C 196.465 80.837,196.182 87.352,196.189 110.036 C 196.196 133.079,196.380 136.888,197.797 143.431 C 198.167 145.137,198.662 148.470,198.897 150.838 C 200.514 167.083,205.516 171.016,227.339 173.196 C 230.463 173.508,234.827 174.014,237.038 174.321 C 247.835 175.817,275.240 175.517,289.416 173.747 C 290.922 173.559,293.303 173.305,294.708 173.182 C 314.543 171.447,321.021 166.692,322.669 152.657 C 322.876 150.895,323.302 147.892,323.616 145.985 C 323.930 144.078,324.404 141.204,324.669 139.599 C 326.543 128.272,326.170 87.233,324.101 76.885 C 323.693 74.845,323.137 71.204,322.867 68.796 C 321.371 55.484,316.848 49.924,306.250 48.364 C 303.987 48.031,301.486 47.530,300.691 47.249 C 296.171 45.654,265.134 43.854,251.460 44.394 M147.263 210.048 C 142.088 210.679,139.273 211.201,137.591 211.840 C 136.286 212.335,134.398 212.933,133.394 213.168 C 127.422 214.567,120.194 218.458,111.958 224.706 C 107.779 227.876,100.437 236.975,98.028 241.968 C 97.555 242.947,96.840 244.293,96.439 244.958 C 96.037 245.624,95.502 246.825,95.250 247.628 C 94.997 248.431,94.424 249.827,93.976 250.730 C 93.527 251.633,92.971 253.477,92.739 254.827 C 92.507 256.177,91.995 258.327,91.600 259.604 C 89.405 266.713,89.261 287.333,91.365 293.273 C 91.655 294.089,92.178 296.060,92.528 297.652 C 92.878 299.245,93.635 301.487,94.210 302.636 C 94.785 303.784,95.255 304.914,95.255 305.147 C 95.255 305.740,98.340 311.797,99.944 314.352 C 101.827 317.354,108.788 325.229,111.027 326.890 C 112.060 327.657,113.492 328.732,114.208 329.280 C 114.925 329.827,116.168 330.713,116.971 331.248 C 117.774 331.784,119.147 332.701,120.023 333.286 C 120.899 333.871,122.459 334.682,123.490 335.087 C 124.521 335.492,125.870 336.135,126.488 336.516 C 127.105 336.896,128.679 337.455,129.986 337.758 C 131.293 338.061,133.148 338.657,134.108 339.082 C 142.112 342.622,172.783 342.586,181.816 339.026 C 182.846 338.620,184.855 338.044,186.279 337.747 C 189.450 337.084,195.180 334.764,195.605 333.970 C 196.530 332.242,196.194 269.917,195.255 268.978 C 194.541 268.264,194.039 268.248,171.404 268.248 L 148.283 268.248 147.043 269.084 L 145.803 269.919 145.700 279.394 C 145.555 292.793,144.449 291.606,157.086 291.606 C 170.202 291.606,169.344 290.730,169.342 304.123 C 169.340 314.829,169.234 315.334,166.732 316.522 C 163.904 317.863,152.144 317.662,147.263 316.188 C 146.259 315.885,144.288 315.311,142.883 314.911 C 141.478 314.512,139.589 313.742,138.686 313.199 C 137.783 312.657,136.609 311.970,136.078 311.672 C 128.905 307.657,122.618 298.418,120.788 289.203 C 120.393 287.212,119.809 284.529,119.491 283.241 C 118.705 280.055,118.713 271.020,119.504 267.965 C 119.818 266.753,120.331 264.391,120.644 262.716 C 122.402 253.291,130.813 242.347,138.937 238.913 C 140.104 238.419,141.551 237.758,142.153 237.443 C 142.755 237.129,144.480 236.606,145.985 236.281 C 147.491 235.957,149.872 235.339,151.277 234.908 C 154.330 233.971,165.284 233.802,168.248 234.645 C 169.151 234.902,171.755 235.506,174.033 235.986 C 176.311 236.466,178.939 237.201,179.872 237.619 C 180.806 238.037,182.607 238.773,183.876 239.256 C 185.144 239.738,186.648 240.464,187.217 240.869 C 188.514 241.793,189.488 241.805,190.300 240.907 C 190.941 240.199,191.227 221.554,190.641 218.626 C 190.288 216.859,185.436 213.984,181.420 213.161 C 180.334 212.939,178.692 212.414,177.770 211.995 C 172.634 209.660,158.070 208.730,147.263 210.048 M51.575 211.681 C 49.948 212.337,49.988 210.751,49.952 274.935 C 49.914 341.125,49.807 337.671,51.920 338.246 C 54.454 338.935,76.930 338.305,77.932 337.516 L 78.832 336.808 78.832 275.503 C 78.832 208.463,78.961 212.491,76.784 211.663 C 75.630 211.225,52.668 211.241,51.575 211.681 M252.465 211.787 C 251.133 212.371,248.653 215.734,248.152 217.637 C 247.931 218.475,247.381 219.818,246.928 220.620 C 246.476 221.423,245.720 223.066,245.249 224.270 C 244.778 225.474,244.176 226.800,243.911 227.217 C 243.647 227.633,243.026 229.165,242.530 230.622 C 242.035 232.078,241.316 233.790,240.932 234.427 C 240.548 235.063,240.028 236.241,239.775 237.044 C 239.522 237.847,238.862 239.411,238.307 240.520 C 237.752 241.629,237.103 243.272,236.864 244.170 C 236.626 245.068,236.061 246.543,235.610 247.448 C 235.159 248.353,234.327 250.488,233.762 252.193 C 233.197 253.897,232.513 255.633,232.243 256.049 C 231.973 256.465,231.364 257.947,230.890 259.341 C 230.416 260.735,229.697 262.529,229.292 263.328 C 228.887 264.127,228.437 265.356,228.291 266.058 C 228.145 266.761,227.401 268.978,226.636 270.985 C 225.872 272.993,224.840 275.867,224.342 277.372 C 222.556 282.776,222.199 283.805,220.990 287.044 C 219.746 290.375,216.819 299.552,216.042 302.555 C 215.808 303.458,215.379 304.658,215.088 305.221 C 214.797 305.784,214.087 308.001,213.511 310.148 C 212.935 312.295,212.140 315.036,211.744 316.241 C 210.746 319.281,209.227 324.682,208.151 329.015 C 207.652 331.022,206.989 333.591,206.678 334.723 C 205.638 338.512,205.922 338.589,220.803 338.541 C 236.050 338.493,235.281 338.822,236.487 331.822 C 236.857 329.676,237.517 327.016,237.955 325.912 C 238.393 324.808,238.993 322.509,239.288 320.803 C 239.891 317.321,241.106 314.335,242.478 312.963 L 243.397 312.044 266.790 312.044 C 295.226 312.044,292.905 311.414,294.341 319.526 C 294.696 321.533,295.446 324.735,296.006 326.642 C 296.567 328.549,297.206 331.341,297.427 332.847 C 298.275 338.623,298.504 338.705,313.686 338.653 C 329.690 338.599,329.491 338.693,327.433 332.192 C 326.816 330.244,325.970 327.183,325.552 325.390 C 325.135 323.598,324.484 321.432,324.106 320.577 C 323.728 319.723,323.225 318.069,322.988 316.902 C 322.751 315.736,322.172 313.796,321.702 312.591 C 321.231 311.387,320.513 309.078,320.105 307.461 C 319.697 305.844,318.942 303.402,318.427 302.033 C 317.912 300.665,317.168 298.160,316.773 296.467 C 316.378 294.773,315.823 292.939,315.539 292.389 C 315.255 291.840,314.751 290.331,314.418 289.035 C 314.086 287.739,313.438 286.022,312.979 285.219 C 312.519 284.416,311.936 282.856,311.684 281.752 C 311.432 280.648,310.695 278.266,310.046 276.460 C 309.397 274.653,308.419 271.861,307.873 270.255 C 305.510 263.313,304.810 261.412,304.110 260.036 C 303.701 259.234,303.013 257.386,302.580 255.931 C 302.148 254.476,301.308 252.259,300.715 251.004 C 300.121 249.749,299.635 248.476,299.635 248.175 C 299.634 247.874,299.159 246.724,298.578 245.620 C 297.998 244.516,297.277 242.780,296.975 241.762 C 296.674 240.743,296.023 239.101,295.527 238.112 C 295.032 237.123,294.335 235.411,293.979 234.307 C 293.622 233.203,292.960 231.642,292.506 230.839 C 292.053 230.036,291.572 228.969,291.439 228.467 C 291.305 227.965,290.557 226.241,289.777 224.635 C 288.996 223.029,287.479 219.745,286.406 217.336 C 283.543 210.912,284.806 211.310,267.350 211.330 C 257.351 211.342,253.187 211.470,252.465 211.787 M269.295 242.648 C 270.065 244.208,271.056 246.600,271.497 247.964 C 271.938 249.328,272.541 250.815,272.837 251.268 C 273.134 251.720,273.702 253.266,274.101 254.703 C 274.499 256.139,275.153 257.927,275.555 258.676 C 275.957 259.424,276.713 261.432,277.234 263.139 C 277.755 264.845,278.469 266.816,278.822 267.518 C 279.174 268.221,279.672 269.699,279.927 270.803 C 280.183 271.907,280.782 273.589,281.259 274.541 C 281.736 275.492,282.382 277.375,282.695 278.724 C 283.008 280.073,283.703 282.086,284.241 283.198 C 285.447 285.691,285.605 289.004,284.567 290.042 C 283.495 291.114,250.195 291.040,249.407 289.964 C 248.494 288.715,248.391 287.509,249.050 285.778 C 249.732 283.986,251.985 277.036,253.645 271.608 C 254.215 269.743,254.849 268.014,255.054 267.768 C 255.258 267.521,255.765 266.091,256.180 264.590 C 256.595 263.089,257.418 260.712,258.008 259.307 C 258.598 257.901,259.484 255.520,259.976 254.015 C 262.083 247.571,264.754 241.295,266.149 239.515 C 266.801 238.682,267.856 239.733,269.295 242.648 " stroke="none" fill="#0c0f4d" fill-rule="evenodd"></path><path id="path1" d="M109.591 44.735 C 106.895 45.914,107.129 40.115,107.008 108.743 C 106.892 173.826,106.874 172.823,108.205 174.368 L 109.064 175.365 118.309 175.329 C 125.538 175.301,128.828 175.123,133.394 174.512 C 136.606 174.082,141.322 173.481,143.874 173.177 C 164.020 170.773,167.910 166.579,170.450 144.526 C 170.855 141.013,171.445 136.332,171.761 134.124 C 173.082 124.893,172.822 92.308,171.345 81.934 C 171.059 79.927,170.563 76.232,170.243 73.723 C 167.603 53.048,165.661 50.841,146.350 46.558 C 139.755 45.095,111.921 43.715,109.591 44.735 " stroke="none" fill="#fb6406" fill-rule="evenodd"></path><path id="path2" d="M0.000 182.482 L 0.000 364.964 200.000 364.964 L 400.000 364.964 400.000 182.482 L 400.000 0.000 200.000 0.000 L 0.000 0.000 0.000 182.482 M287.591 45.039 C 295.292 45.718,299.345 46.243,301.825 46.882 C 303.732 47.373,306.524 47.962,308.029 48.191 C 312.872 48.926,318.315 52.389,319.910 55.750 C 321.366 58.817,322.701 63.547,323.212 67.444 C 323.516 69.762,324.074 73.158,324.451 74.991 C 326.895 86.871,326.999 132.438,324.607 143.613 C 324.306 145.018,323.749 148.475,323.370 151.294 C 321.240 167.113,316.202 171.430,297.628 173.349 C 295.420 173.578,291.454 174.080,288.815 174.465 C 278.993 175.899,251.316 176.300,239.333 175.182 C 207.380 172.200,201.315 169.255,199.117 155.657 C 198.760 153.449,198.133 149.754,197.725 147.445 C 196.528 140.680,196.415 139.474,195.778 126.642 C 194.955 110.081,195.525 85.588,196.927 77.190 C 197.229 75.383,197.955 70.917,198.541 67.265 C 200.638 54.195,204.489 49.579,214.609 48.009 C 216.521 47.713,218.777 47.226,219.621 46.928 C 222.049 46.072,225.862 45.676,247.628 44.023 C 253.962 43.542,277.356 44.136,287.591 45.039 M131.569 45.095 C 138.394 45.610,145.046 46.269,146.350 46.558 C 165.661 50.841,167.603 53.048,170.243 73.723 C 170.563 76.232,171.059 79.927,171.345 81.934 C 172.822 92.308,173.082 124.893,171.761 134.124 C 171.445 136.332,170.855 141.013,170.450 144.526 C 167.910 166.579,164.020 170.773,143.874 173.177 C 141.322 173.481,136.606 174.082,133.394 174.512 C 128.828 175.123,125.538 175.301,118.309 175.329 L 109.064 175.365 108.205 174.368 C 106.874 172.823,106.892 173.826,107.008 108.743 C 107.111 50.499,107.151 47.178,107.766 46.240 C 109.331 43.852,112.857 43.682,131.569 45.095 M59.018 46.900 C 60.055 47.208,62.757 47.794,65.022 48.202 C 77.416 50.433,79.909 55.074,83.046 81.752 C 84.461 93.788,84.461 126.128,83.046 137.774 C 82.443 142.735,80.838 153.879,80.275 157.008 C 79.425 161.737,76.202 166.827,72.794 168.824 C 67.401 171.985,52.003 174.373,50.329 172.308 C 49.419 171.185,49.390 48.072,50.300 46.976 C 51.218 45.870,55.426 45.833,59.018 46.900 M168.613 209.526 C 171.122 209.919,173.832 210.334,174.635 210.449 C 177.266 210.824,186.299 214.117,188.418 215.472 C 191.538 217.468,191.423 216.935,191.423 229.432 C 191.423 243.310,191.376 243.403,185.681 240.722 C 180.666 238.361,177.182 237.138,173.540 236.460 C 163.682 234.624,163.373 234.588,158.942 234.775 C 153.398 235.010,144.661 236.798,141.686 238.308 C 140.538 238.891,139.134 239.543,138.567 239.758 C 136.006 240.729,129.154 246.558,127.453 249.213 C 127.111 249.746,126.309 250.877,125.669 251.726 C 125.030 252.575,124.395 253.643,124.259 254.099 C 124.123 254.554,123.466 256.159,122.799 257.664 C 121.110 261.475,119.708 269.643,119.708 275.669 C 119.708 302.028,134.719 317.367,159.885 316.726 C 168.736 316.500,168.613 316.673,168.613 304.413 C 168.613 296.333,168.552 295.472,167.888 294.171 C 166.920 292.273,167.779 292.434,157.115 292.152 C 143.841 291.800,144.785 292.827,144.961 278.931 L 145.073 270.088 146.085 269.077 L 147.097 268.066 171.045 268.066 L 194.994 268.066 195.763 269.096 C 196.722 270.380,197.007 332.198,196.062 333.853 C 195.410 334.995,191.026 337.123,187.533 337.992 C 185.930 338.391,183.794 339.043,182.788 339.439 C 173.648 343.042,144.029 343.215,134.307 339.722 C 133.203 339.325,131.314 338.705,130.109 338.343 C 109.110 332.032,92.146 310.326,89.760 286.714 C 89.209 281.259,89.520 266.253,90.261 262.591 C 94.307 242.580,104.570 227.356,119.968 218.523 C 120.929 217.972,121.962 217.360,122.263 217.162 C 126.588 214.325,137.806 210.845,146.350 209.689 C 156.993 208.249,160.295 208.225,168.613 209.526 M78.106 211.929 C 79.646 213.653,79.601 211.531,79.486 276.581 L 79.380 336.921 78.188 337.986 L 76.996 339.051 64.830 339.051 C 52.160 339.051,50.940 338.923,49.992 337.493 C 49.304 336.455,48.972 217.249,49.648 213.988 C 50.345 210.629,50.469 210.603,65.267 210.694 L 77.067 210.766 78.106 211.929 M281.403 210.952 C 284.232 211.488,285.882 213.857,289.080 221.970 C 289.465 222.947,290.020 224.113,290.314 224.562 C 290.608 225.010,291.105 226.106,291.420 226.997 C 291.734 227.888,292.391 229.446,292.879 230.458 C 293.367 231.471,294.360 233.777,295.086 235.584 C 295.813 237.391,296.869 240.018,297.434 241.423 C 297.999 242.828,298.803 244.799,299.221 245.803 C 301.171 250.481,301.990 252.587,302.911 255.292 C 303.458 256.898,304.233 258.869,304.633 259.672 C 305.033 260.474,305.575 261.953,305.839 262.956 C 306.102 263.960,306.571 265.274,306.880 265.876 C 307.513 267.110,309.643 273.092,311.494 278.832 C 313.707 285.696,315.019 289.564,315.763 291.423 C 316.165 292.427,316.820 294.480,317.219 295.985 C 317.618 297.491,318.253 299.462,318.631 300.365 C 319.008 301.268,319.737 303.694,320.251 305.756 C 320.764 307.817,321.508 310.324,321.903 311.327 C 322.298 312.330,322.887 314.316,323.211 315.740 C 323.535 317.164,324.105 319.021,324.479 319.865 C 324.853 320.710,325.498 322.868,325.914 324.660 C 326.330 326.453,327.070 329.084,327.558 330.506 C 329.005 334.719,329.131 336.961,327.983 338.109 L 327.040 339.051 313.976 339.050 C 297.956 339.048,298.035 339.074,297.090 333.577 C 296.866 332.272,296.284 329.808,295.798 328.102 C 295.312 326.396,294.500 322.975,293.994 320.500 C 292.281 312.128,294.571 312.774,266.607 312.774 L 243.762 312.774 242.843 313.693 C 241.437 315.099,240.197 318.169,239.433 322.136 C 239.053 324.113,238.475 326.358,238.150 327.126 C 237.824 327.894,237.228 330.355,236.825 332.594 C 235.628 339.243,236.243 338.995,220.759 339.085 C 205.454 339.175,204.865 338.975,206.334 334.197 C 206.655 333.153,207.259 330.697,207.676 328.739 C 208.093 326.781,208.762 324.235,209.163 323.082 C 209.563 321.929,210.201 319.668,210.580 318.058 C 210.958 316.447,211.586 314.390,211.973 313.485 C 212.361 312.581,212.957 310.614,213.298 309.114 C 213.638 307.614,214.239 305.658,214.632 304.768 C 215.026 303.877,215.678 301.855,216.081 300.274 C 216.485 298.694,217.165 296.466,217.593 295.324 C 218.021 294.182,218.816 291.770,219.359 289.964 C 219.903 288.157,220.685 285.858,221.097 284.854 C 221.510 283.850,222.201 281.962,222.633 280.657 C 223.422 278.273,225.026 273.695,227.685 266.241 C 229.025 262.482,229.963 260.071,231.799 255.657 C 232.217 254.653,233.017 252.600,233.578 251.095 C 236.058 244.439,237.304 241.299,238.142 239.599 C 239.052 237.749,240.242 234.887,241.817 230.754 C 242.294 229.502,243.158 227.531,243.737 226.374 C 244.316 225.217,244.999 223.613,245.255 222.810 C 245.510 222.007,246.096 220.693,246.558 219.891 C 247.019 219.088,247.742 217.503,248.163 216.370 C 249.309 213.288,251.451 211.026,253.389 210.851 C 256.953 210.528,279.601 210.610,281.403 210.952 M264.974 242.906 C 264.149 244.410,263.006 246.991,262.434 248.641 C 261.861 250.292,260.735 253.551,259.932 255.884 C 259.128 258.216,258.259 260.516,258.001 260.993 C 257.743 261.471,257.169 263.093,256.726 264.599 C 256.282 266.104,255.588 268.157,255.182 269.161 C 254.777 270.164,253.616 273.613,252.602 276.825 C 248.076 291.164,246.842 289.926,265.801 290.068 C 282.662 290.193,284.672 289.898,284.672 287.288 C 284.672 286.337,282.604 279.674,281.311 276.460 C 280.907 275.456,280.214 273.403,279.771 271.898 C 279.327 270.392,278.757 268.776,278.503 268.307 C 278.249 267.837,277.413 265.620,276.646 263.380 C 273.978 255.595,273.055 253.091,272.118 251.095 C 271.599 249.991,271.174 248.841,271.172 248.540 C 271.167 247.582,267.851 241.031,267.149 240.593 C 266.548 240.217,266.313 240.467,264.974 242.906 " stroke="none" fill="#fbfbfb" fill-rule="evenodd"></path><path id="path3" d="M247.628 44.023 C 225.862 45.676,222.049 46.072,219.621 46.928 C 218.777 47.226,216.521 47.713,214.609 48.009 C 204.489 49.579,200.638 54.195,198.541 67.265 C 197.955 70.917,197.229 75.383,196.927 77.190 C 195.525 85.588,194.955 110.081,195.778 126.642 C 196.415 139.474,196.528 140.680,197.725 147.445 C 198.133 149.754,198.760 153.449,199.117 155.657 C 201.315 169.255,207.380 172.200,239.333 175.182 C 251.316 176.300,278.993 175.899,288.815 174.465 C 291.454 174.080,295.420 173.578,297.628 173.349 C 316.202 171.430,321.240 167.113,323.370 151.294 C 323.749 148.475,324.306 145.018,324.607 143.613 C 326.999 132.438,326.895 86.871,324.451 74.991 C 324.074 73.158,323.516 69.762,323.212 67.444 C 322.701 63.547,321.366 58.817,319.910 55.750 C 318.315 52.389,312.872 48.926,308.029 48.191 C 306.524 47.962,303.732 47.373,301.825 46.882 C 294.303 44.943,259.606 43.113,247.628 44.023 M283.029 45.246 C 294.884 46.111,298.688 46.542,300.691 47.249 C 301.486 47.530,303.987 48.031,306.250 48.364 C 316.848 49.924,321.371 55.484,322.867 68.796 C 323.137 71.204,323.693 74.845,324.101 76.885 C 326.170 87.233,326.543 128.272,324.669 139.599 C 324.404 141.204,323.930 144.078,323.616 145.985 C 323.302 147.892,322.876 150.895,322.669 152.657 C 321.021 166.692,314.543 171.447,294.708 173.182 C 293.303 173.305,290.922 173.559,289.416 173.747 C 275.240 175.517,247.835 175.817,237.038 174.321 C 234.827 174.014,230.463 173.508,227.339 173.196 C 205.516 171.016,200.514 167.083,198.897 150.838 C 198.662 148.470,198.167 145.137,197.797 143.431 C 195.506 132.852,195.406 84.967,197.657 76.186 C 197.953 75.032,198.443 72.076,198.747 69.617 C 200.580 54.777,204.446 49.879,215.511 48.377 C 217.719 48.077,220.549 47.504,221.800 47.103 C 223.998 46.399,241.762 44.776,251.460 44.394 C 258.379 44.121,273.036 44.516,283.029 45.246 M51.578 46.218 C 49.725 46.629,49.824 43.239,49.722 109.500 C 49.611 181.430,49.049 173.202,54.074 173.135 C 69.112 172.934,78.445 167.190,80.275 157.008 C 80.838 153.879,82.443 142.735,83.046 137.774 C 84.461 126.128,84.461 93.788,83.046 81.752 C 79.909 55.074,77.416 50.433,65.022 48.202 C 62.757 47.794,60.055 47.208,59.018 46.900 C 57.007 46.303,52.893 45.926,51.578 46.218 M154.927 208.634 C 142.602 209.586,128.003 213.398,122.263 217.162 C 121.962 217.360,120.929 217.972,119.968 218.523 C 104.570 227.356,94.307 242.580,90.261 262.591 C 89.520 266.253,89.209 281.259,89.760 286.714 C 92.146 310.326,109.110 332.032,130.109 338.343 C 131.314 338.705,133.203 339.325,134.307 339.722 C 144.029 343.215,173.648 343.042,182.788 339.439 C 183.794 339.043,185.930 338.391,187.533 337.992 C 191.026 337.123,195.410 334.995,196.062 333.853 C 197.007 332.198,196.722 270.380,195.763 269.096 L 194.994 268.066 171.045 268.066 L 147.097 268.066 146.085 269.077 L 145.073 270.088 144.961 278.931 C 144.785 292.827,143.841 291.800,157.115 292.152 C 167.779 292.434,166.920 292.273,167.888 294.171 C 168.552 295.472,168.613 296.333,168.613 304.413 C 168.613 316.673,168.736 316.500,159.885 316.726 C 134.719 317.367,119.708 302.028,119.708 275.669 C 119.708 269.643,121.110 261.475,122.799 257.664 C 123.466 256.159,124.123 254.554,124.259 254.099 C 124.395 253.643,125.030 252.575,125.669 251.726 C 126.309 250.877,127.111 249.746,127.453 249.213 C 129.154 246.558,136.006 240.729,138.567 239.758 C 139.134 239.543,140.538 238.891,141.686 238.308 C 144.661 236.798,153.398 235.010,158.942 234.775 C 163.373 234.588,163.682 234.624,173.540 236.460 C 177.182 237.138,180.666 238.361,185.681 240.722 C 191.376 243.403,191.423 243.310,191.423 229.432 C 191.423 216.935,191.538 217.468,188.418 215.472 C 186.299 214.117,177.266 210.824,174.635 210.449 C 173.832 210.334,171.122 209.919,168.613 209.526 C 163.819 208.776,158.001 208.397,154.927 208.634 M170.255 210.352 C 173.664 210.866,176.792 211.550,177.770 211.995 C 178.692 212.414,180.334 212.939,181.420 213.161 C 185.436 213.984,190.288 216.859,190.641 218.626 C 191.227 221.554,190.941 240.199,190.300 240.907 C 189.488 241.805,188.514 241.793,187.217 240.869 C 186.648 240.464,185.144 239.738,183.876 239.256 C 182.607 238.773,180.806 238.037,179.872 237.619 C 178.939 237.201,176.311 236.466,174.033 235.986 C 171.755 235.506,169.151 234.902,168.248 234.645 C 165.284 233.802,154.330 233.971,151.277 234.908 C 149.872 235.339,147.491 235.957,145.985 236.281 C 144.480 236.606,142.755 237.129,142.153 237.443 C 141.551 237.758,140.104 238.419,138.937 238.913 C 130.813 242.347,122.402 253.291,120.644 262.716 C 120.331 264.391,119.818 266.753,119.504 267.965 C 118.713 271.020,118.705 280.055,119.491 283.241 C 119.809 284.529,120.393 287.212,120.788 289.203 C 122.618 298.418,128.905 307.657,136.078 311.672 C 136.609 311.970,137.783 312.657,138.686 313.199 C 139.589 313.742,141.478 314.512,142.883 314.911 C 144.288 315.311,146.259 315.885,147.263 316.188 C 152.144 317.662,163.904 317.863,166.732 316.522 C 169.234 315.334,169.340 314.829,169.342 304.123 C 169.344 290.730,170.202 291.606,157.086 291.606 C 144.449 291.606,145.555 292.793,145.700 279.394 L 145.803 269.919 147.043 269.084 L 148.283 268.248 171.404 268.248 C 194.039 268.248,194.541 268.264,195.255 268.978 C 196.194 269.917,196.530 332.242,195.605 333.970 C 195.180 334.764,189.450 337.084,186.279 337.747 C 184.855 338.044,182.846 338.620,181.816 339.026 C 172.783 342.586,142.112 342.622,134.108 339.082 C 133.148 338.657,131.293 338.061,129.986 337.758 C 128.679 337.455,127.105 336.896,126.488 336.516 C 125.870 336.135,124.521 335.492,123.490 335.087 C 122.459 334.682,120.899 333.871,120.023 333.286 C 119.147 332.701,117.774 331.784,116.971 331.248 C 116.168 330.713,114.925 329.827,114.208 329.280 C 113.492 328.732,112.060 327.657,111.027 326.890 C 108.788 325.229,101.827 317.354,99.944 314.352 C 98.340 311.797,95.255 305.740,95.255 305.147 C 95.255 304.914,94.785 303.784,94.210 302.636 C 93.635 301.487,92.878 299.245,92.528 297.652 C 92.178 296.060,91.655 294.089,91.365 293.273 C 89.261 287.333,89.405 266.713,91.600 259.604 C 91.995 258.327,92.507 256.177,92.739 254.827 C 92.971 253.477,93.527 251.633,93.976 250.730 C 94.424 249.827,94.997 248.431,95.250 247.628 C 95.502 246.825,96.037 245.624,96.439 244.958 C 96.840 244.293,97.555 242.947,98.028 241.968 C 99.576 238.758,103.457 233.402,107.363 229.085 C 113.417 222.394,125.468 215.025,133.394 213.168 C 134.398 212.933,136.286 212.335,137.591 211.840 C 144.107 209.365,159.162 208.679,170.255 210.352 M52.283 210.921 C 49.074 211.733,49.262 207.628,49.331 275.474 C 49.365 308.872,49.515 332.563,49.670 329.197 C 49.823 325.885,49.944 298.518,49.939 268.382 C 49.929 210.166,49.861 212.356,51.688 211.661 C 52.889 211.205,75.583 211.207,76.784 211.663 C 78.961 212.491,78.832 208.463,78.832 275.503 L 78.832 336.808 77.932 337.516 C 77.094 338.175,76.203 338.237,65.067 338.403 C 51.502 338.606,50.802 338.517,50.112 336.495 C 49.741 335.407,49.675 335.354,49.667 336.131 C 49.640 338.854,50.660 339.051,64.799 339.051 L 76.996 339.051 78.188 337.986 L 79.380 336.921 79.486 276.581 C 79.601 211.531,79.646 213.653,78.106 211.929 L 77.067 210.766 65.267 210.694 C 58.777 210.654,52.934 210.756,52.283 210.921 M253.389 210.851 C 251.451 211.026,249.309 213.288,248.163 216.370 C 247.742 217.503,247.019 219.088,246.558 219.891 C 246.096 220.693,245.510 222.007,245.255 222.810 C 244.999 223.613,244.316 225.217,243.737 226.374 C 243.158 227.531,242.294 229.502,241.817 230.754 C 240.242 234.887,239.052 237.749,238.142 239.599 C 237.304 241.299,236.058 244.439,233.578 251.095 C 233.017 252.600,232.217 254.653,231.799 255.657 C 229.963 260.071,229.025 262.482,227.685 266.241 C 225.026 273.695,223.422 278.273,222.633 280.657 C 222.201 281.962,221.510 283.850,221.097 284.854 C 220.685 285.858,219.903 288.157,219.359 289.964 C 218.816 291.770,218.021 294.182,217.593 295.324 C 217.165 296.466,216.485 298.694,216.081 300.274 C 215.678 301.855,215.026 303.877,214.632 304.768 C 214.239 305.658,213.638 307.614,213.298 309.114 C 212.957 310.614,212.361 312.581,211.973 313.485 C 211.586 314.390,210.958 316.447,210.580 318.058 C 210.201 319.668,209.563 321.929,209.163 323.082 C 208.762 324.235,208.093 326.781,207.676 328.739 C 207.259 330.697,206.655 333.153,206.334 334.197 C 204.865 338.975,205.454 339.175,220.759 339.085 C 236.243 338.995,235.628 339.243,236.825 332.594 C 237.228 330.355,237.824 327.894,238.150 327.126 C 238.475 326.358,239.053 324.113,239.433 322.136 C 240.197 318.169,241.437 315.099,242.843 313.693 L 243.762 312.774 266.607 312.774 C 294.571 312.774,292.281 312.128,293.994 320.500 C 294.500 322.975,295.312 326.396,295.798 328.102 C 296.284 329.808,296.866 332.272,297.090 333.577 C 298.035 339.074,297.956 339.048,313.976 339.050 L 327.040 339.051 327.983 338.109 C 329.131 336.961,329.005 334.719,327.558 330.506 C 327.070 329.084,326.330 326.453,325.914 324.660 C 325.498 322.868,324.853 320.710,324.479 319.865 C 324.105 319.021,323.535 317.164,323.211 315.740 C 322.887 314.316,322.298 312.330,321.903 311.327 C 321.508 310.324,320.764 307.817,320.251 305.756 C 319.737 303.694,319.008 301.268,318.631 300.365 C 318.253 299.462,317.618 297.491,317.219 295.985 C 316.820 294.480,316.165 292.427,315.763 291.423 C 315.019 289.564,313.707 285.696,311.494 278.832 C 309.643 273.092,307.513 267.110,306.880 265.876 C 306.571 265.274,306.102 263.960,305.839 262.956 C 305.575 261.953,305.033 260.474,304.633 259.672 C 304.233 258.869,303.458 256.898,302.911 255.292 C 301.990 252.587,301.171 250.481,299.221 245.803 C 298.803 244.799,297.999 242.828,297.434 241.423 C 296.869 240.018,295.813 237.391,295.086 235.584 C 294.360 233.777,293.367 231.471,292.879 230.458 C 292.391 229.446,291.734 227.888,291.420 226.997 C 291.105 226.106,290.608 225.010,290.314 224.562 C 290.020 224.113,289.465 222.947,289.080 221.970 C 285.882 213.857,284.232 211.488,281.403 210.952 C 279.601 210.610,256.953 210.528,253.389 210.851 M282.843 212.135 C 284.361 212.909,284.567 213.209,286.406 217.336 C 287.479 219.745,288.996 223.029,289.777 224.635 C 290.557 226.241,291.305 227.965,291.439 228.467 C 291.572 228.969,292.053 230.036,292.506 230.839 C 292.960 231.642,293.622 233.203,293.979 234.307 C 294.335 235.411,295.032 237.123,295.527 238.112 C 296.023 239.101,296.674 240.743,296.975 241.762 C 297.277 242.780,297.998 244.516,298.578 245.620 C 299.159 246.724,299.634 247.874,299.635 248.175 C 299.635 248.476,300.121 249.749,300.715 251.004 C 301.308 252.259,302.148 254.476,302.580 255.931 C 303.013 257.386,303.701 259.234,304.110 260.036 C 304.810 261.412,305.510 263.313,307.873 270.255 C 308.419 271.861,309.397 274.653,310.046 276.460 C 310.695 278.266,311.432 280.648,311.684 281.752 C 311.936 282.856,312.519 284.416,312.979 285.219 C 313.438 286.022,314.086 287.739,314.418 289.035 C 314.751 290.331,315.255 291.840,315.539 292.389 C 315.823 292.939,316.378 294.773,316.773 296.467 C 317.168 298.160,317.912 300.665,318.427 302.033 C 318.942 303.402,319.697 305.844,320.105 307.461 C 320.513 309.078,321.231 311.387,321.702 312.591 C 322.172 313.796,322.751 315.736,322.988 316.902 C 323.225 318.069,323.728 319.723,324.106 320.577 C 324.484 321.432,325.135 323.598,325.552 325.390 C 325.970 327.183,326.816 330.244,327.433 332.192 C 329.491 338.693,329.690 338.599,313.686 338.653 C 298.504 338.705,298.275 338.623,297.427 332.847 C 297.206 331.341,296.567 328.549,296.006 326.642 C 295.446 324.735,294.696 321.533,294.341 319.526 C 292.905 311.414,295.226 312.044,266.790 312.044 L 243.397 312.044 242.478 312.963 C 241.106 314.335,239.891 317.321,239.288 320.803 C 238.993 322.509,238.393 324.808,237.955 325.912 C 237.517 327.016,236.857 329.676,236.487 331.822 C 235.281 338.822,236.050 338.493,220.803 338.541 C 205.922 338.589,205.638 338.512,206.678 334.723 C 206.989 333.591,207.652 331.022,208.151 329.015 C 209.227 324.682,210.746 319.281,211.744 316.241 C 212.140 315.036,212.935 312.295,213.511 310.148 C 214.087 308.001,214.797 305.784,215.088 305.221 C 215.379 304.658,215.808 303.458,216.042 302.555 C 216.819 299.552,219.746 290.375,220.990 287.044 C 222.199 283.805,222.556 282.776,224.342 277.372 C 224.840 275.867,225.872 272.993,226.636 270.985 C 227.401 268.978,228.145 266.761,228.291 266.058 C 228.437 265.356,228.887 264.127,229.292 263.328 C 229.697 262.529,230.416 260.735,230.890 259.341 C 231.364 257.947,231.973 256.465,232.243 256.049 C 232.513 255.633,233.197 253.897,233.762 252.193 C 234.327 250.488,235.159 248.353,235.610 247.448 C 236.061 246.543,236.626 245.068,236.864 244.170 C 237.103 243.272,237.752 241.629,238.307 240.520 C 238.862 239.411,239.522 237.847,239.775 237.044 C 240.028 236.241,240.548 235.063,240.932 234.427 C 241.316 233.790,242.035 232.078,242.530 230.622 C 243.026 229.165,243.647 227.633,243.911 227.217 C 244.176 226.800,244.778 225.474,245.249 224.270 C 245.720 223.066,246.476 221.423,246.928 220.620 C 247.381 219.818,247.931 218.475,248.152 217.637 C 248.653 215.734,251.133 212.371,252.465 211.787 C 254.579 210.859,280.933 211.161,282.843 212.135 M266.149 239.515 C 264.754 241.295,262.083 247.571,259.976 254.015 C 259.484 255.520,258.598 257.901,258.008 259.307 C 257.418 260.712,256.595 263.089,256.180 264.590 C 255.765 266.091,255.258 267.521,255.054 267.768 C 254.849 268.014,254.215 269.743,253.645 271.608 C 251.985 277.036,249.732 283.986,249.050 285.778 C 248.391 287.509,248.494 288.715,249.407 289.964 C 250.195 291.040,283.495 291.114,284.567 290.042 C 285.605 289.004,285.447 285.691,284.241 283.198 C 283.703 282.086,283.008 280.073,282.695 278.724 C 282.382 277.375,281.736 275.492,281.259 274.541 C 280.782 273.589,280.183 271.907,279.927 270.803 C 279.672 269.699,279.174 268.221,278.822 267.518 C 278.469 266.816,277.755 264.845,277.234 263.139 C 276.713 261.432,275.957 259.424,275.555 258.676 C 275.153 257.927,274.499 256.139,274.101 254.703 C 273.702 253.266,273.134 251.720,272.837 251.268 C 272.541 250.815,271.938 249.328,271.497 247.964 C 269.707 242.424,267.098 238.303,266.149 239.515 M269.496 244.503 C 270.416 246.423,271.170 248.239,271.172 248.540 C 271.174 248.841,271.599 249.991,272.118 251.095 C 273.055 253.091,273.978 255.595,276.646 263.380 C 277.413 265.620,278.249 267.837,278.503 268.307 C 278.757 268.776,279.327 270.392,279.771 271.898 C 280.214 273.403,280.907 275.456,281.311 276.460 C 282.604 279.674,284.672 286.337,284.672 287.288 C 284.672 289.898,282.662 290.193,265.801 290.068 C 246.842 289.926,248.076 291.164,252.602 276.825 C 253.616 273.613,254.777 270.164,255.182 269.161 C 255.588 268.157,256.282 266.104,256.726 264.599 C 257.169 263.093,257.743 261.471,258.001 260.993 C 258.259 260.516,259.128 258.216,259.932 255.884 C 260.735 253.551,261.861 250.292,262.434 248.641 C 263.006 246.991,264.149 244.410,264.974 242.906 C 266.845 239.498,267.148 239.604,269.496 244.503 " stroke="none" fill="#0018c0" fill-rule="evenodd"></path></g></svg>