<svg id="svg" version="1.1" xmlns="http://www.w3.org/2000/svg" xmlns:xlink="http://www.w3.org/1999/xlink" width="400" height="364.8902821316614" viewBox="0, 0, 400,364.8902821316614"><g id="svgg"><path id="path0" d="M248.175 44.048 C 238.047 44.639,222.977 46.122,220.536 46.767 C 218.976 47.179,216.037 47.814,214.004 48.177 C 204.154 49.937,200.428 54.643,198.545 67.701 C 198.140 70.511,197.570 73.878,197.278 75.182 C 194.854 86.036,194.863 132.753,197.292 144.299 C 197.587 145.700,198.163 149.237,198.573 152.157 C 200.598 166.576,204.904 170.672,220.255 172.786 C 237.291 175.131,240.898 175.447,254.015 175.746 C 266.300 176.027,281.138 175.470,288.472 174.454 C 291.300 174.062,295.882 173.483,298.655 173.167 C 315.750 171.218,321.425 166.549,323.029 153.113 C 323.246 151.300,323.817 147.682,324.299 145.073 C 326.804 131.492,326.900 87.753,324.450 75.365 C 324.053 73.358,323.484 69.832,323.186 67.531 C 321.593 55.253,317.354 50.013,307.502 48.146 C 305.383 47.744,302.407 47.098,300.890 46.710 C 298.288 46.044,288.013 45.037,275.000 44.171 C 270.019 43.840,253.072 43.762,248.175 44.048 M51.038 46.595 C 50.706 46.683,50.318 47.198,50.177 47.739 C 49.868 48.922,49.881 170.949,50.190 171.922 C 50.609 173.242,55.093 173.283,61.284 172.023 C 76.515 168.925,78.841 166.207,81.236 148.723 C 81.758 144.909,82.413 140.146,82.691 138.139 C 84.001 128.678,84.329 96.096,83.217 85.949 C 79.863 55.359,77.414 50.413,64.609 48.377 C 62.513 48.044,59.645 47.452,58.235 47.061 C 55.893 46.412,52.546 46.195,51.038 46.595 M110.273 46.833 C 109.510 47.752,109.648 171.243,110.413 172.411 C 111.175 173.575,110.794 173.569,123.540 172.628 C 128.960 172.228,134.872 171.898,136.679 171.896 C 140.490 171.892,143.821 171.411,146.691 170.451 C 147.809 170.078,150.382 169.528,152.411 169.230 C 155.985 168.704,158.411 167.738,161.895 165.456 C 163.665 164.296,166.271 158.242,166.547 154.649 C 166.695 152.727,167.209 150.188,167.838 148.265 C 168.784 145.377,168.905 144.429,169.103 138.321 C 169.224 134.608,169.591 128.120,169.919 123.905 C 170.562 115.657,170.466 101.284,169.709 92.336 C 169.496 89.827,169.185 84.653,169.018 80.839 C 168.754 74.840,168.586 73.536,167.775 71.168 C 167.193 69.470,166.749 67.183,166.607 65.146 C 166.184 59.095,162.663 53.711,157.942 51.898 C 152.919 49.968,151.855 49.688,147.993 49.287 C 145.785 49.057,143.403 48.720,142.701 48.539 C 136.885 47.034,111.226 45.685,110.273 46.833 M145.438 209.864 C 131.815 211.883,121.858 216.220,111.336 224.716 C 106.755 228.415,100.477 236.097,97.832 241.241 C 97.264 242.345,96.454 243.905,96.031 244.708 C 94.064 248.444,91.630 256.124,90.305 262.774 C 89.033 269.157,89.289 287.577,90.722 292.849 C 91.000 293.872,91.648 296.326,92.162 298.303 C 92.677 300.281,93.334 302.260,93.624 302.702 C 93.914 303.144,94.478 304.458,94.879 305.622 C 95.279 306.786,95.979 308.337,96.435 309.068 C 96.890 309.800,97.540 311.009,97.878 311.756 C 102.363 321.653,119.912 336.108,129.927 338.154 C 130.630 338.298,132.108 338.815,133.212 339.304 C 141.822 343.114,172.698 343.185,182.555 339.418 C 183.619 339.011,185.840 338.356,187.492 337.961 C 191.382 337.032,195.526 334.968,195.999 333.724 C 196.214 333.157,196.350 320.598,196.350 301.237 L 196.350 269.675 195.455 268.779 L 194.559 267.883 171.238 267.883 L 147.918 267.883 146.682 268.716 C 145.061 269.809,144.931 270.642,144.939 279.927 C 144.949 292.784,144.158 291.950,156.387 292.013 C 169.477 292.082,168.614 291.224,168.612 304.160 C 168.610 316.180,168.554 316.288,162.044 316.842 C 155.762 317.375,144.807 315.686,140.524 313.523 C 130.759 308.592,125.659 302.690,121.752 291.799 C 118.991 284.102,119.132 267.165,122.023 259.307 C 126.400 247.408,136.309 238.528,147.628 236.363 C 149.234 236.055,151.697 235.552,153.102 235.244 C 156.758 234.443,163.809 234.502,168.191 235.370 C 170.129 235.754,173.100 236.340,174.791 236.672 C 176.483 237.003,178.362 237.531,178.967 237.844 C 179.572 238.156,181.209 238.801,182.604 239.275 C 184.000 239.750,185.845 240.551,186.705 241.055 C 191.000 243.572,191.400 242.698,191.525 230.528 C 191.655 217.786,191.603 217.546,188.236 215.480 C 185.327 213.694,176.962 210.826,172.993 210.253 C 171.487 210.035,168.695 209.613,166.788 209.315 C 161.300 208.456,153.599 208.654,145.438 209.864 M53.985 210.833 C 49.098 211.465,49.622 203.755,49.613 275.159 C 49.604 342.629,49.444 338.029,51.825 338.692 C 54.805 339.521,76.413 339.133,77.759 338.226 C 79.572 337.004,79.489 340.015,79.498 275.182 C 79.507 210.629,79.573 212.968,77.711 211.629 C 76.936 211.071,57.254 210.411,53.985 210.833 M250.524 212.597 C 249.680 213.503,248.785 214.776,248.535 215.425 C 248.126 216.488,247.008 219.043,243.785 226.277 C 243.204 227.582,242.328 229.635,241.839 230.839 C 239.515 236.562,238.927 237.965,237.786 240.511 C 237.112 242.016,236.445 243.659,236.305 244.161 C 236.165 244.662,235.519 246.305,234.869 247.810 C 234.219 249.316,233.568 251.040,233.421 251.642 C 233.274 252.245,232.700 253.723,232.144 254.927 C 231.589 256.131,230.928 257.774,230.676 258.577 C 230.424 259.380,229.761 261.104,229.203 262.409 C 228.237 264.664,227.755 266.007,225.004 274.088 C 224.355 275.995,223.481 278.376,223.061 279.380 C 222.641 280.383,222.112 281.943,221.885 282.847 C 221.658 283.750,221.096 285.392,220.635 286.496 C 220.174 287.600,218.973 291.131,217.966 294.343 C 216.958 297.555,215.701 301.496,215.171 303.102 C 214.642 304.708,213.811 307.535,213.325 309.384 C 212.839 311.233,212.192 313.229,211.886 313.820 C 211.581 314.411,211.006 316.347,210.608 318.122 C 210.211 319.898,209.541 322.336,209.121 323.540 C 208.700 324.745,207.961 327.536,207.478 329.745 C 206.996 331.953,206.412 334.296,206.182 334.952 C 204.845 338.760,205.856 339.051,220.418 339.051 C 236.218 339.051,235.576 339.318,236.866 332.212 C 237.258 330.052,237.901 327.446,238.294 326.421 C 238.687 325.397,239.250 323.179,239.547 321.494 C 240.165 317.976,241.077 315.648,242.500 313.957 L 243.496 312.774 266.808 312.774 L 290.121 312.774 291.366 313.867 C 292.908 315.221,293.198 315.959,294.166 320.985 C 294.591 323.193,295.321 326.314,295.789 327.920 C 296.257 329.526,296.839 331.989,297.084 333.394 C 298.076 339.099,297.926 339.048,313.619 339.050 C 330.481 339.052,330.262 339.194,327.365 330.141 C 326.781 328.317,326.052 325.628,325.745 324.165 C 325.438 322.702,324.932 321.011,324.620 320.409 C 324.308 319.806,323.642 317.651,323.139 315.620 C 322.637 313.588,322.048 311.594,321.830 311.187 C 321.612 310.780,320.900 308.466,320.246 306.045 C 319.156 302.004,318.432 299.676,316.377 293.613 C 315.969 292.409,315.417 290.766,315.150 289.964 C 314.598 288.297,313.419 284.773,312.343 281.569 C 310.189 275.155,309.710 273.720,309.053 271.715 C 308.658 270.511,307.864 268.376,307.289 266.971 C 306.714 265.566,305.840 263.266,305.346 261.861 C 303.442 256.439,301.857 252.293,300.951 250.365 C 300.432 249.261,300.006 248.119,300.004 247.826 C 300.002 247.534,299.434 246.056,298.742 244.542 C 297.378 241.557,296.042 238.344,294.681 234.773 C 294.204 233.523,293.236 231.281,292.528 229.789 C 291.820 228.298,291.241 226.938,291.241 226.769 C 291.241 226.599,290.675 225.310,289.982 223.905 C 289.289 222.500,287.834 219.380,286.748 216.971 C 283.789 210.407,285.547 210.949,267.216 210.949 L 252.058 210.949 250.524 212.597 M269.278 243.887 C 270.072 245.543,271.007 247.801,271.357 248.905 C 271.707 250.009,272.222 251.323,272.502 251.825 C 272.781 252.327,273.485 254.133,274.066 255.839 C 274.646 257.546,275.892 261.077,276.834 263.686 C 277.776 266.296,278.871 269.416,279.267 270.620 C 279.662 271.825,280.455 273.960,281.028 275.365 C 281.600 276.770,282.393 279.069,282.790 280.474 C 283.186 281.880,283.764 283.686,284.075 284.489 C 286.167 289.899,285.419 290.146,266.971 290.146 C 250.352 290.146,249.635 290.026,249.635 287.248 C 249.635 286.242,252.112 277.486,252.741 276.271 C 253.013 275.744,253.577 273.976,253.994 272.342 C 254.412 270.707,255.068 268.830,255.452 268.170 C 255.837 267.511,256.424 265.907,256.757 264.607 C 257.090 263.307,257.543 261.911,257.764 261.505 C 258.129 260.835,259.628 256.688,262.386 248.723 C 263.352 245.933,265.375 241.561,266.139 240.610 C 266.812 239.774,267.802 240.808,269.278 243.887 " stroke="none" fill="#0c0f4d" fill-rule="evenodd"></path><path id="path1" d="M0.000 182.482 L 0.000 364.964 200.000 364.964 L 400.000 364.964 400.000 182.482 L 400.000 0.000 200.000 0.000 L 0.000 0.000 0.000 182.482 M275.000 44.171 C 288.013 45.037,298.288 46.044,300.890 46.710 C 302.407 47.098,305.383 47.744,307.502 48.146 C 317.354 50.013,321.593 55.253,323.186 67.531 C 323.484 69.832,324.053 73.358,324.450 75.365 C 326.900 87.753,326.804 131.492,324.299 145.073 C 323.817 147.682,323.246 151.300,323.029 153.113 C 321.425 166.549,315.750 171.218,298.655 173.167 C 295.882 173.483,291.300 174.062,288.472 174.454 C 281.138 175.470,266.300 176.027,254.015 175.746 C 240.898 175.447,237.291 175.131,220.255 172.786 C 204.904 170.672,200.598 166.576,198.573 152.157 C 198.163 149.237,197.587 145.700,197.292 144.299 C 194.863 132.753,194.854 86.036,197.278 75.182 C 197.570 73.878,198.140 70.511,198.545 67.701 C 200.428 54.643,204.154 49.937,214.004 48.177 C 216.037 47.814,218.976 47.179,220.536 46.767 C 222.977 46.122,238.047 44.639,248.175 44.048 C 253.072 43.762,270.019 43.840,275.000 44.171 M58.235 47.061 C 59.645 47.452,62.513 48.044,64.609 48.377 C 77.414 50.413,79.863 55.359,83.217 85.949 C 84.329 96.096,84.001 128.678,82.691 138.139 C 82.413 140.146,81.758 144.909,81.236 148.723 C 78.841 166.207,76.515 168.925,61.284 172.023 C 55.093 173.283,50.609 173.242,50.190 171.922 C 49.881 170.949,49.868 48.922,50.177 47.739 C 50.318 47.198,50.706 46.683,51.038 46.595 C 52.546 46.195,55.893 46.412,58.235 47.061 M124.635 46.704 C 131.780 47.030,140.159 47.881,142.701 48.539 C 143.403 48.720,145.785 49.057,147.993 49.287 C 151.855 49.688,152.919 49.968,157.942 51.898 C 162.663 53.711,166.184 59.095,166.607 65.146 C 166.749 67.183,167.193 69.470,167.775 71.168 C 168.586 73.536,168.754 74.840,169.018 80.839 C 169.185 84.653,169.496 89.827,169.709 92.336 C 170.466 101.284,170.562 115.657,169.919 123.905 C 169.591 128.120,169.224 134.608,169.103 138.321 C 168.905 144.429,168.784 145.377,167.838 148.265 C 167.209 150.188,166.695 152.727,166.547 154.649 C 166.271 158.242,163.665 164.296,161.895 165.456 C 158.411 167.738,155.985 168.704,152.411 169.230 C 150.382 169.528,147.809 170.078,146.691 170.451 C 143.821 171.411,140.490 171.892,136.679 171.896 C 134.872 171.898,128.960 172.228,123.540 172.628 C 110.794 173.569,111.175 173.575,110.413 172.411 C 109.648 171.243,109.510 47.752,110.273 46.833 C 110.754 46.254,114.123 46.223,124.635 46.704 M166.788 209.315 C 168.695 209.613,171.487 210.035,172.993 210.253 C 176.962 210.826,185.327 213.694,188.236 215.480 C 191.603 217.546,191.655 217.786,191.525 230.528 C 191.400 242.698,191.000 243.572,186.705 241.055 C 185.845 240.551,184.000 239.750,182.604 239.275 C 181.209 238.801,179.572 238.156,178.967 237.844 C 178.362 237.531,176.483 237.003,174.791 236.672 C 173.100 236.340,170.129 235.754,168.191 235.370 C 163.809 234.502,156.758 234.443,153.102 235.244 C 151.697 235.552,149.234 236.055,147.628 236.363 C 136.309 238.528,126.400 247.408,122.023 259.307 C 119.132 267.165,118.991 284.102,121.752 291.799 C 125.659 302.690,130.759 308.592,140.524 313.523 C 144.807 315.686,155.762 317.375,162.044 316.842 C 168.554 316.288,168.610 316.180,168.612 304.160 C 168.614 291.224,169.477 292.082,156.387 292.013 C 144.158 291.950,144.949 292.784,144.939 279.927 C 144.931 270.642,145.061 269.809,146.682 268.716 L 147.918 267.883 171.238 267.883 L 194.559 267.883 195.455 268.779 L 196.350 269.675 196.350 301.237 C 196.350 320.598,196.214 333.157,195.999 333.724 C 195.526 334.968,191.382 337.032,187.492 337.961 C 185.840 338.356,183.619 339.011,182.555 339.418 C 172.698 343.185,141.822 343.114,133.212 339.304 C 132.108 338.815,130.630 338.298,129.927 338.154 C 119.912 336.108,102.363 321.653,97.878 311.756 C 97.540 311.009,96.890 309.800,96.435 309.068 C 95.979 308.337,95.279 306.786,94.879 305.622 C 94.478 304.458,93.914 303.144,93.624 302.702 C 93.334 302.260,92.677 300.281,92.162 298.303 C 91.648 296.326,91.000 293.872,90.722 292.849 C 89.289 287.577,89.033 269.157,90.305 262.774 C 91.630 256.124,94.064 248.444,96.031 244.708 C 96.454 243.905,97.264 242.345,97.832 241.241 C 98.887 239.190,100.837 236.286,103.504 232.797 C 116.300 216.056,144.054 205.758,166.788 209.315 M77.711 211.629 C 79.573 212.968,79.507 210.629,79.498 275.182 C 79.489 340.015,79.572 337.004,77.759 338.226 C 76.413 339.133,54.805 339.521,51.825 338.692 C 49.444 338.029,49.604 342.629,49.613 275.159 C 49.622 203.755,49.098 211.465,53.985 210.833 C 57.254 210.411,76.936 211.071,77.711 211.629 M283.574 211.770 C 284.501 212.405,285.223 213.587,286.748 216.971 C 287.834 219.380,289.289 222.500,289.982 223.905 C 290.675 225.310,291.241 226.599,291.241 226.769 C 291.241 226.938,291.820 228.298,292.528 229.789 C 293.236 231.281,294.204 233.523,294.681 234.773 C 296.042 238.344,297.378 241.557,298.742 244.542 C 299.434 246.056,300.002 247.534,300.004 247.826 C 300.006 248.119,300.432 249.261,300.951 250.365 C 301.857 252.293,303.442 256.439,305.346 261.861 C 305.840 263.266,306.714 265.566,307.289 266.971 C 307.864 268.376,308.658 270.511,309.053 271.715 C 309.710 273.720,310.189 275.155,312.343 281.569 C 313.419 284.773,314.598 288.297,315.150 289.964 C 315.417 290.766,315.969 292.409,316.377 293.613 C 318.432 299.676,319.156 302.004,320.246 306.045 C 320.900 308.466,321.612 310.780,321.830 311.187 C 322.048 311.594,322.637 313.588,323.139 315.620 C 323.642 317.651,324.308 319.806,324.620 320.409 C 324.932 321.011,325.438 322.702,325.745 324.165 C 326.052 325.628,326.781 328.317,327.365 330.141 C 330.262 339.194,330.481 339.052,313.619 339.050 C 297.926 339.048,298.076 339.099,297.084 333.394 C 296.839 331.989,296.257 329.526,295.789 327.920 C 295.321 326.314,294.591 323.193,294.166 320.985 C 293.198 315.959,292.908 315.221,291.366 313.867 L 290.121 312.774 266.808 312.774 L 243.496 312.774 242.500 313.957 C 241.077 315.648,240.165 317.976,239.547 321.494 C 239.250 323.179,238.687 325.397,238.294 326.421 C 237.901 327.446,237.258 330.052,236.866 332.212 C 235.576 339.318,236.218 339.051,220.418 339.051 C 205.856 339.051,204.845 338.760,206.182 334.952 C 206.412 334.296,206.996 331.953,207.478 329.745 C 207.961 327.536,208.700 324.745,209.121 323.540 C 209.541 322.336,210.211 319.898,210.608 318.122 C 211.006 316.347,211.581 314.411,211.886 313.820 C 212.192 313.229,212.839 311.233,213.325 309.384 C 213.811 307.535,214.642 304.708,215.171 303.102 C 215.701 301.496,216.958 297.555,217.966 294.343 C 218.973 291.131,220.174 287.600,220.635 286.496 C 221.096 285.392,221.658 283.750,221.885 282.847 C 222.112 281.943,222.641 280.383,223.061 279.380 C 223.481 278.376,224.355 275.995,225.004 274.088 C 227.755 266.007,228.237 264.664,229.203 262.409 C 229.761 261.104,230.424 259.380,230.676 258.577 C 230.928 257.774,231.589 256.131,232.144 254.927 C 232.700 253.723,233.274 252.245,233.421 251.642 C 233.568 251.040,234.219 249.316,234.869 247.810 C 235.519 246.305,236.165 244.662,236.305 244.161 C 236.445 243.659,237.112 242.016,237.786 240.511 C 238.927 237.965,239.515 236.562,241.839 230.839 C 242.328 229.635,243.204 227.582,243.785 226.277 C 247.008 219.043,248.126 216.488,248.535 215.425 C 248.785 214.776,249.680 213.503,250.524 212.597 L 252.058 210.949 267.216 210.949 C 282.336 210.949,282.377 210.951,283.574 211.770 M266.139 240.610 C 265.375 241.561,263.352 245.933,262.386 248.723 C 259.628 256.688,258.129 260.835,257.764 261.505 C 257.543 261.911,257.090 263.307,256.757 264.607 C 256.424 265.907,255.837 267.511,255.452 268.170 C 255.068 268.830,254.412 270.707,253.994 272.342 C 253.577 273.976,253.013 275.744,252.741 276.271 C 252.112 277.486,249.635 286.242,249.635 287.248 C 249.635 290.026,250.352 290.146,266.971 290.146 C 285.419 290.146,286.167 289.899,284.075 284.489 C 283.764 283.686,283.186 281.880,282.790 280.474 C 282.393 279.069,281.600 276.770,281.028 275.365 C 280.455 273.960,279.662 271.825,279.267 270.620 C 278.871 269.416,277.776 266.296,276.834 263.686 C 275.892 261.077,274.646 257.546,274.066 255.839 C 273.485 254.133,272.781 252.327,272.502 251.825 C 272.222 251.323,271.707 250.009,271.357 248.905 C 269.693 243.654,267.059 239.466,266.139 240.610 " stroke="none" fill="#fffeff" fill-rule="evenodd"></path></g></svg>